<svg xmlns="http://www.w3.org/2000/svg" xmlns:xlink="http://www.w3.org/1999/xlink" width="2048" zoomAndPan="magnify" viewBox="0 0 1536 767.999994" height="1024" preserveAspectRatio="xMidYMid meet" version="1.0"><defs><g/><clipPath id="2a87ea4029"><path d="M 1056 192 L 1193 192 L 1193 322.421875 L 1056 322.421875 Z M 1056 192 " clip-rule="nonzero"/></clipPath></defs><g clip-path="url(#2a87ea4029)"><path fill="#5482cd" d="M 1163.648438 279.847656 C 1163.148438 277.136719 1164.078125 274.355469 1166.074219 272.425781 L 1189.980469 249.589844 C 1194.976562 244.808594 1192.195312 236.460938 1185.414062 235.53125 L 1165.289062 232.820312 L 1152.65625 231.105469 C 1149.945312 230.75 1147.589844 229.035156 1146.378906 226.539062 L 1136.957031 206.984375 L 1132.035156 196.707031 C 1130.535156 193.640625 1127.609375 192.070312 1124.613281 192.070312 C 1121.683594 192.070312 1118.6875 193.640625 1117.191406 196.707031 L 1102.84375 226.539062 C 1101.632812 229.035156 1099.277344 230.75 1096.566406 231.105469 L 1063.808594 235.53125 C 1057.027344 236.460938 1054.246094 244.808594 1059.242188 249.589844 L 1083.148438 272.425781 C 1085.148438 274.355469 1086.074219 277.136719 1085.574219 279.847656 L 1079.652344 312.390625 C 1078.652344 317.742188 1082.933594 322.097656 1087.714844 322.097656 C 1089 322.097656 1090.355469 321.8125 1091.640625 321.097656 L 1120.757812 305.398438 C 1121.972656 304.753906 1123.328125 304.398438 1124.683594 304.398438 C 1126.039062 304.398438 1127.324219 304.753906 1128.609375 305.398438 L 1157.726562 321.097656 C 1159.007812 321.8125 1160.292969 322.097656 1161.648438 322.097656 C 1166.429688 322.097656 1170.714844 317.742188 1169.714844 312.390625 Z M 1163.648438 279.847656 " fill-opacity="1" fill-rule="nonzero"/></g><path fill="#5482cd" d="M 1264.703125 120.347656 C 1232.300781 124.628906 1199.257812 150.75 1177.136719 173.65625 C 1173.851562 177.367188 1178.847656 182.292969 1182.488281 179.011719 C 1192.050781 169.875 1202.328125 161.382812 1213.175781 154.03125 C 1228.949219 143.542969 1246.859375 133.765625 1265.84375 131.910156 C 1273.550781 131.339844 1282.398438 132.765625 1286.253906 139.972656 C 1292.390625 151.960938 1285.039062 170.445312 1279.402344 181.863281 C 1261.703125 215.761719 1232.515625 244.808594 1200.1875 264.863281 C 1194.761719 268.144531 1189.125 271.070312 1183.488281 273.640625 C 1178.136719 275.996094 1175.78125 282.417969 1178.421875 287.699219 C 1180.917969 292.835938 1187.128906 294.90625 1192.265625 292.339844 C 1198.761719 289.125 1204.898438 285.558594 1210.820312 281.632812 C 1245.148438 258.367188 1275.191406 225.96875 1292.960938 188.289062 C 1300.097656 172.230469 1307.019531 150.035156 1297.457031 133.550781 C 1290.535156 122.0625 1276.90625 118.777344 1264.703125 120.347656 Z M 1264.703125 120.347656 " fill-opacity="1" fill-rule="nonzero"/><g fill="#38b6ff" fill-opacity="1"><g transform="translate(0.000006, 560.339148)"><g><path d="M 156.53125 -54.09375 L 171.34375 -11.9375 C 165.175781 -6.851562 157.425781 -2.875 148.09375 0 C 138.769531 2.875 128.210938 4.3125 116.421875 4.3125 C 91.878906 4.3125 73.226562 -2.367188 60.46875 -15.734375 C 47.71875 -29.109375 41.34375 -48.546875 41.34375 -74.046875 L 41.34375 -181.828125 L 6.78125 -181.828125 L 6.78125 -227.09375 L 41.34375 -227.09375 L 41.34375 -271.3125 L 98.328125 -280.5625 L 98.328125 -227.09375 L 162.703125 -227.09375 L 162.703125 -181.828125 L 98.328125 -181.828125 L 98.328125 -78.171875 C 98.328125 -66.921875 100.65625 -58.722656 105.3125 -53.578125 C 109.976562 -48.441406 116.769531 -45.875 125.6875 -45.875 C 135.832031 -45.875 144.675781 -48.613281 152.21875 -54.09375 Z M 156.53125 -54.09375 "/></g></g></g><g fill="#38b6ff" fill-opacity="1"><g transform="translate(176.280721, 560.339148)"><g><path d="M 106.140625 4.3125 C 90.640625 4.3125 76.441406 2.5 63.546875 -1.125 C 50.660156 -4.757812 39.65625 -9.765625 30.53125 -16.140625 C 21.414062 -22.523438 14.664062 -29.828125 10.28125 -38.046875 L 41.96875 -72.203125 L 46.28125 -72.203125 C 53.820312 -62.054688 62.734375 -54.441406 73.015625 -49.359375 C 83.304688 -44.285156 94.484375 -41.75 106.546875 -41.75 C 117.660156 -41.75 126.023438 -43.738281 131.640625 -47.71875 C 137.265625 -51.695312 140.078125 -57.390625 140.078125 -64.796875 C 140.078125 -70.554688 138.050781 -75.390625 134 -79.296875 C 129.957031 -83.203125 123.410156 -86.253906 114.359375 -88.453125 L 84.328125 -95.65625 C 61.835938 -101 45.414062 -109.1875 35.0625 -120.21875 C 24.71875 -131.257812 19.546875 -145.285156 19.546875 -162.296875 C 19.546875 -176.421875 23.144531 -188.691406 30.34375 -199.109375 C 37.539062 -209.535156 47.6875 -217.488281 60.78125 -222.96875 C 73.875 -228.457031 89.128906 -231.203125 106.546875 -231.203125 C 126.984375 -231.203125 143.921875 -228.253906 157.359375 -222.359375 C 170.796875 -216.460938 181.285156 -208.578125 188.828125 -198.703125 L 158.390625 -165.796875 L 154.265625 -165.796875 C 147.960938 -172.921875 140.867188 -178.128906 132.984375 -181.421875 C 125.097656 -184.710938 116.285156 -186.359375 106.546875 -186.359375 C 84.054688 -186.359375 72.8125 -179.363281 72.8125 -165.375 C 72.8125 -159.476562 74.898438 -154.675781 79.078125 -150.96875 C 83.265625 -147.269531 90.640625 -144.257812 101.203125 -141.9375 L 129.171875 -135.765625 C 152.210938 -130.828125 169.046875 -122.90625 179.671875 -112 C 190.296875 -101.101562 195.609375 -86.460938 195.609375 -68.078125 C 195.609375 -53.679688 192.039062 -41 184.90625 -30.03125 C 177.78125 -19.0625 167.5 -10.59375 154.0625 -4.625 C 140.625 1.332031 124.648438 4.3125 106.140625 4.3125 Z M 106.140625 4.3125 "/></g></g></g><g fill="#38b6ff" fill-opacity="1"><g transform="translate(385.472652, 560.339148)"><g><path d="M 103.875 4.3125 C 78.363281 4.3125 59.539062 -2.644531 47.40625 -16.5625 C 35.269531 -30.476562 29.203125 -50.460938 29.203125 -76.515625 L 29.203125 -226.875 L 86.1875 -226.875 L 86.1875 -83.71875 C 86.1875 -69.863281 89.164062 -59.75 95.125 -53.375 C 101.09375 -47 110.316406 -43.8125 122.796875 -43.8125 C 138.566406 -43.8125 150.835938 -48.988281 159.609375 -59.34375 C 168.390625 -69.695312 172.78125 -85.984375 172.78125 -108.203125 L 172.78125 -226.875 L 229.765625 -226.875 L 229.765625 0 L 175.046875 0 L 175.046875 -33.328125 L 170.734375 -34.34375 C 163.460938 -21.320312 154.582031 -11.625 144.09375 -5.25 C 133.601562 1.125 120.195312 4.3125 103.875 4.3125 Z M 103.875 4.3125 "/></g></g></g><g fill="#5482cd" fill-opacity="1"><g transform="translate(647.959661, 560.339148)"><g><path d="M 32.703125 0 L 32.703125 -226.875 L 88.03125 -226.875 L 88.03125 -193.15625 L 92.359375 -192.328125 C 97.835938 -204.941406 105.035156 -214.195312 113.953125 -220.09375 C 122.867188 -225.988281 133.703125 -228.9375 146.453125 -228.9375 C 159.347656 -228.9375 169.15625 -226.742188 175.875 -222.359375 L 166.203125 -173.203125 L 161.890625 -172.375 C 158.179688 -173.882812 154.613281 -174.976562 151.1875 -175.65625 C 147.757812 -176.34375 143.578125 -176.6875 138.640625 -176.6875 C 122.734375 -176.6875 110.597656 -171.097656 102.234375 -159.921875 C 93.867188 -148.753906 89.6875 -130.828125 89.6875 -106.140625 L 89.6875 0 Z M 32.703125 0 "/></g></g></g><g fill="#5482cd" fill-opacity="1"><g transform="translate(825.885937, 560.339148)"><g><path d="M 88.453125 4.3125 C 73.910156 4.3125 61.289062 1.640625 50.59375 -3.703125 C 39.90625 -9.046875 31.679688 -16.894531 25.921875 -27.25 C 20.160156 -37.601562 17.28125 -50.050781 17.28125 -64.59375 C 17.28125 -78.03125 20.160156 -89.304688 25.921875 -98.421875 C 31.679688 -107.546875 40.59375 -115.019531 52.65625 -120.84375 C 64.726562 -126.675781 80.5 -131.164062 99.96875 -134.3125 C 113.539062 -136.507812 123.859375 -138.910156 130.921875 -141.515625 C 137.984375 -144.117188 142.75 -147.066406 145.21875 -150.359375 C 147.6875 -153.648438 148.921875 -157.832031 148.921875 -162.90625 C 148.921875 -170.175781 146.382812 -175.726562 141.3125 -179.5625 C 136.238281 -183.40625 127.804688 -185.328125 116.015625 -185.328125 C 103.398438 -185.328125 91.398438 -182.515625 80.015625 -176.890625 C 68.628906 -171.273438 58.753906 -163.875 50.390625 -154.6875 L 46.28125 -154.6875 L 22.421875 -190.6875 C 33.941406 -203.4375 48 -213.375 64.59375 -220.5 C 81.1875 -227.632812 99.285156 -231.203125 118.890625 -231.203125 C 148.921875 -231.203125 170.65625 -224.820312 184.09375 -212.0625 C 197.53125 -199.3125 204.25 -181.210938 204.25 -157.765625 L 204.25 -59.234375 C 204.25 -49.085938 208.707031 -44.015625 217.625 -44.015625 C 221.050781 -44.015625 224.410156 -44.632812 227.703125 -45.875 L 230.578125 -45.046875 L 234.703125 -5.34375 C 231.546875 -3.289062 227.15625 -1.613281 221.53125 -0.3125 C 215.90625 0.988281 209.734375 1.640625 203.015625 1.640625 C 189.441406 1.640625 178.847656 -0.960938 171.234375 -6.171875 C 163.628906 -11.378906 158.179688 -19.539062 154.890625 -30.65625 L 150.5625 -31.0625 C 139.457031 -7.476562 118.753906 4.3125 88.453125 4.3125 Z M 106.546875 -38.265625 C 119.710938 -38.265625 130.238281 -42.6875 138.125 -51.53125 C 146.007812 -60.375 149.953125 -72.679688 149.953125 -88.453125 L 149.953125 -111.484375 L 146.046875 -112.3125 C 142.617188 -109.570312 138.125 -107.273438 132.5625 -105.421875 C 127.007812 -103.566406 119.023438 -101.75 108.609375 -99.96875 C 96.265625 -97.914062 87.382812 -94.382812 81.96875 -89.375 C 76.550781 -84.363281 73.84375 -77.265625 73.84375 -68.078125 C 73.84375 -58.347656 76.722656 -50.945312 82.484375 -45.875 C 88.242188 -40.800781 96.265625 -38.265625 106.546875 -38.265625 Z M 106.546875 -38.265625 "/></g></g></g><g fill="#5482cd" fill-opacity="1"><g transform="translate(1065.109353, 560.339148)"><g><path d="M 61.09375 -254.03125 C 50.8125 -254.03125 42.445312 -257.148438 36 -263.390625 C 29.550781 -269.628906 26.328125 -277.6875 26.328125 -287.5625 C 26.328125 -297.300781 29.550781 -305.289062 36 -311.53125 C 42.445312 -317.769531 50.8125 -320.890625 61.09375 -320.890625 C 67.945312 -320.890625 74.046875 -319.445312 79.390625 -316.5625 C 84.742188 -313.6875 88.894531 -309.742188 91.84375 -304.734375 C 94.789062 -299.734375 96.265625 -294.007812 96.265625 -287.5625 C 96.265625 -281.113281 94.789062 -275.351562 91.84375 -270.28125 C 88.894531 -265.207031 84.742188 -261.226562 79.390625 -258.34375 C 74.046875 -255.46875 67.945312 -254.03125 61.09375 -254.03125 Z M 32.703125 0 L 32.703125 -226.875 L 89.6875 -226.875 L 89.6875 0 Z M 32.703125 0 "/></g></g></g><g fill="#ffffff" fill-opacity="1"><g transform="translate(1187.299378, 560.339148)"><g><path d="M 58 1.84375 C 50.738281 1.84375 44.328125 0.367188 38.765625 -2.578125 C 33.210938 -5.523438 28.960938 -9.601562 26.015625 -14.8125 C 23.066406 -20.019531 21.59375 -25.914062 21.59375 -32.5 C 21.59375 -39.082031 23.066406 -44.976562 26.015625 -50.1875 C 28.960938 -55.394531 33.210938 -59.507812 38.765625 -62.53125 C 44.328125 -65.550781 50.738281 -67.0625 58 -67.0625 C 65.40625 -67.0625 71.882812 -65.585938 77.4375 -62.640625 C 83 -59.691406 87.253906 -55.609375 90.203125 -50.390625 C 93.148438 -45.179688 94.625 -39.285156 94.625 -32.703125 C 94.625 -22.691406 91.296875 -14.429688 84.640625 -7.921875 C 77.992188 -1.410156 69.113281 1.84375 58 1.84375 Z M 58 1.84375 "/></g></g></g><g fill="#ffffff" fill-opacity="1"><g transform="translate(1303.517123, 560.339148)"><g><path d="M 58 1.84375 C 50.738281 1.84375 44.328125 0.367188 38.765625 -2.578125 C 33.210938 -5.523438 28.960938 -9.601562 26.015625 -14.8125 C 23.066406 -20.019531 21.59375 -25.914062 21.59375 -32.5 C 21.59375 -39.082031 23.066406 -44.976562 26.015625 -50.1875 C 28.960938 -55.394531 33.210938 -59.507812 38.765625 -62.53125 C 44.328125 -65.550781 50.738281 -67.0625 58 -67.0625 C 65.40625 -67.0625 71.882812 -65.585938 77.4375 -62.640625 C 83 -59.691406 87.253906 -55.609375 90.203125 -50.390625 C 93.148438 -45.179688 94.625 -39.285156 94.625 -32.703125 C 94.625 -22.691406 91.296875 -14.429688 84.640625 -7.921875 C 77.992188 -1.410156 69.113281 1.84375 58 1.84375 Z M 58 1.84375 "/></g></g></g><g fill="#ffffff" fill-opacity="1"><g transform="translate(1419.734869, 560.339148)"><g><path d="M 58 1.84375 C 50.738281 1.84375 44.328125 0.367188 38.765625 -2.578125 C 33.210938 -5.523438 28.960938 -9.601562 26.015625 -14.8125 C 23.066406 -20.019531 21.59375 -25.914062 21.59375 -32.5 C 21.59375 -39.082031 23.066406 -44.976562 26.015625 -50.1875 C 28.960938 -55.394531 33.210938 -59.507812 38.765625 -62.53125 C 44.328125 -65.550781 50.738281 -67.0625 58 -67.0625 C 65.40625 -67.0625 71.882812 -65.585938 77.4375 -62.640625 C 83 -59.691406 87.253906 -55.609375 90.203125 -50.390625 C 93.148438 -45.179688 94.625 -39.285156 94.625 -32.703125 C 94.625 -22.691406 91.296875 -14.429688 84.640625 -7.921875 C 77.992188 -1.410156 69.113281 1.84375 58 1.84375 Z M 58 1.84375 "/></g></g></g></svg>