<svg xmlns="http://www.w3.org/2000/svg" xmlns:xlink="http://www.w3.org/1999/xlink" width="2048" zoomAndPan="magnify" viewBox="0 0 1536 1151.999944" height="1536" preserveAspectRatio="xMidYMid meet" version="1.0"><defs><g/><clipPath id="8fbefa5cd6"><path d="M 843.28125 528 L 874 528 L 874 556.632812 L 843.28125 556.632812 Z M 843.28125 528 " clip-rule="nonzero"/></clipPath><clipPath id="7b976ecf9b"><path d="M 869 512.382812 L 898 512.382812 L 898 551 L 869 551 Z M 869 512.382812 " clip-rule="nonzero"/></clipPath></defs><rect x="-153.6" width="1843.2" fill="#ffffff" y="-115.199994" height="1382.399933" fill-opacity="1"/><rect x="-153.6" width="1843.2" fill="#ffffff" y="-115.199994" height="1382.399933" fill-opacity="1"/><g fill="#82c9e6" fill-opacity="1"><g transform="translate(574.136704, 617.249924)"><g><path d="M 39.515625 -13.65625 L 43.25 -3.015625 C 41.695312 -1.734375 39.742188 -0.726562 37.390625 0 C 35.035156 0.726562 32.367188 1.09375 29.390625 1.09375 C 23.191406 1.09375 18.484375 -0.59375 15.265625 -3.96875 C 12.046875 -7.34375 10.4375 -12.25 10.4375 -18.6875 L 10.4375 -45.90625 L 1.71875 -45.90625 L 1.71875 -57.328125 L 10.4375 -57.328125 L 10.4375 -68.484375 L 24.828125 -70.828125 L 24.828125 -57.328125 L 41.078125 -57.328125 L 41.078125 -45.90625 L 24.828125 -45.90625 L 24.828125 -19.734375 C 24.828125 -16.890625 25.410156 -14.816406 26.578125 -13.515625 C 27.753906 -12.222656 29.472656 -11.578125 31.734375 -11.578125 C 34.285156 -11.578125 36.515625 -12.269531 38.421875 -13.65625 Z M 39.515625 -13.65625 "/></g></g></g><g fill="#82c9e6" fill-opacity="1"><g transform="translate(618.633721, 617.249924)"><g><path d="M 26.796875 1.09375 C 22.878906 1.09375 19.289062 0.632812 16.03125 -0.28125 C 12.78125 -1.195312 10.003906 -2.457031 7.703125 -4.0625 C 5.410156 -5.675781 3.707031 -7.523438 2.59375 -9.609375 L 10.59375 -18.21875 L 11.6875 -18.21875 C 13.59375 -15.664062 15.84375 -13.75 18.4375 -12.46875 C 21.03125 -11.1875 23.847656 -10.546875 26.890625 -10.546875 C 29.703125 -10.546875 31.816406 -11.046875 33.234375 -12.046875 C 34.648438 -13.046875 35.359375 -14.484375 35.359375 -16.359375 C 35.359375 -17.804688 34.847656 -19.023438 33.828125 -20.015625 C 32.804688 -21.003906 31.15625 -21.773438 28.875 -22.328125 L 21.296875 -24.140625 C 15.617188 -25.492188 11.472656 -27.5625 8.859375 -30.34375 C 6.242188 -33.132812 4.9375 -36.675781 4.9375 -40.96875 C 4.9375 -44.53125 5.84375 -47.625 7.65625 -50.25 C 9.476562 -52.882812 12.039062 -54.894531 15.34375 -56.28125 C 18.644531 -57.664062 22.492188 -58.359375 26.890625 -58.359375 C 32.054688 -58.359375 36.332031 -57.613281 39.71875 -56.125 C 43.113281 -54.644531 45.765625 -52.65625 47.671875 -50.15625 L 39.984375 -41.859375 L 38.9375 -41.859375 C 37.351562 -43.648438 35.5625 -44.960938 33.5625 -45.796875 C 31.570312 -46.628906 29.347656 -47.046875 26.890625 -47.046875 C 21.210938 -47.046875 18.375 -45.28125 18.375 -41.75 C 18.375 -40.257812 18.898438 -39.046875 19.953125 -38.109375 C 21.015625 -37.179688 22.878906 -36.421875 25.546875 -35.828125 L 32.609375 -34.265625 C 38.421875 -33.023438 42.664062 -31.023438 45.34375 -28.265625 C 48.03125 -25.515625 49.375 -21.820312 49.375 -17.1875 C 49.375 -13.550781 48.472656 -10.347656 46.671875 -7.578125 C 44.878906 -4.804688 42.285156 -2.664062 38.890625 -1.15625 C 35.492188 0.34375 31.460938 1.09375 26.796875 1.09375 Z M 26.796875 1.09375 "/></g></g></g><g fill="#82c9e6" fill-opacity="1"><g transform="translate(671.438232, 617.249924)"><g><path d="M 26.21875 1.09375 C 19.78125 1.09375 15.03125 -0.660156 11.96875 -4.171875 C 8.90625 -7.691406 7.375 -12.738281 7.375 -19.3125 L 7.375 -57.28125 L 21.75 -57.28125 L 21.75 -21.140625 C 21.75 -17.640625 22.503906 -15.082031 24.015625 -13.46875 C 25.523438 -11.863281 27.851562 -11.0625 31 -11.0625 C 34.976562 -11.0625 38.078125 -12.367188 40.296875 -14.984375 C 42.515625 -17.597656 43.625 -21.707031 43.625 -27.3125 L 43.625 -57.28125 L 58 -57.28125 L 58 0 L 44.1875 0 L 44.1875 -8.40625 L 43.09375 -8.671875 C 41.257812 -5.378906 39.019531 -2.925781 36.375 -1.3125 C 33.726562 0.289062 30.34375 1.09375 26.21875 1.09375 Z M 26.21875 1.09375 "/></g></g></g><g fill="#5482cd" fill-opacity="1"><g transform="translate(737.695283, 617.249924)"><g><path d="M 8.25 0 L 8.25 -57.28125 L 22.21875 -57.28125 L 22.21875 -48.765625 L 23.3125 -48.546875 C 24.695312 -51.734375 26.515625 -54.070312 28.765625 -55.5625 C 31.015625 -57.050781 33.75 -57.796875 36.96875 -57.796875 C 40.226562 -57.796875 42.703125 -57.238281 44.390625 -56.125 L 41.953125 -43.71875 L 40.859375 -43.515625 C 39.929688 -43.890625 39.035156 -44.164062 38.171875 -44.34375 C 37.304688 -44.519531 36.25 -44.609375 35 -44.609375 C 30.976562 -44.609375 27.910156 -43.195312 25.796875 -40.375 C 23.691406 -37.550781 22.640625 -33.023438 22.640625 -26.796875 L 22.640625 0 Z M 8.25 0 "/></g></g></g><g fill="#5482cd" fill-opacity="1"><g transform="translate(782.607675, 617.249924)"><g><path d="M 22.328125 1.09375 C 18.660156 1.09375 15.472656 0.421875 12.765625 -0.921875 C 10.066406 -2.273438 7.988281 -4.257812 6.53125 -6.875 C 5.082031 -9.488281 4.359375 -12.628906 4.359375 -16.296875 C 4.359375 -19.691406 5.082031 -22.539062 6.53125 -24.84375 C 7.988281 -27.144531 10.238281 -29.03125 13.28125 -30.5 C 16.332031 -31.976562 20.316406 -33.113281 25.234375 -33.90625 C 28.660156 -34.457031 31.265625 -35.0625 33.046875 -35.71875 C 34.828125 -36.382812 36.03125 -37.128906 36.65625 -37.953125 C 37.28125 -38.785156 37.59375 -39.84375 37.59375 -41.125 C 37.59375 -42.957031 36.953125 -44.359375 35.671875 -45.328125 C 34.390625 -46.296875 32.257812 -46.78125 29.28125 -46.78125 C 26.101562 -46.78125 23.078125 -46.070312 20.203125 -44.65625 C 17.328125 -43.238281 14.832031 -41.367188 12.71875 -39.046875 L 11.6875 -39.046875 L 5.65625 -48.140625 C 8.5625 -51.359375 12.109375 -53.863281 16.296875 -55.65625 C 20.492188 -57.457031 25.066406 -58.359375 30.015625 -58.359375 C 37.597656 -58.359375 43.082031 -56.75 46.46875 -53.53125 C 49.863281 -50.3125 51.5625 -45.742188 51.5625 -39.828125 L 51.5625 -14.953125 C 51.5625 -12.390625 52.6875 -11.109375 54.9375 -11.109375 C 55.800781 -11.109375 56.648438 -11.265625 57.484375 -11.578125 L 58.203125 -11.375 L 59.25 -1.34375 C 58.445312 -0.832031 57.335938 -0.410156 55.921875 -0.078125 C 54.503906 0.253906 52.945312 0.421875 51.25 0.421875 C 47.820312 0.421875 45.144531 -0.234375 43.21875 -1.546875 C 41.300781 -2.867188 39.925781 -4.929688 39.09375 -7.734375 L 38.015625 -7.84375 C 35.203125 -1.882812 29.972656 1.09375 22.328125 1.09375 Z M 26.890625 -9.65625 C 30.210938 -9.65625 32.867188 -10.769531 34.859375 -13 C 36.859375 -15.238281 37.859375 -18.347656 37.859375 -22.328125 L 37.859375 -28.140625 L 36.875 -28.34375 C 36 -27.65625 34.859375 -27.078125 33.453125 -26.609375 C 32.054688 -26.140625 30.046875 -25.679688 27.421875 -25.234375 C 24.304688 -24.710938 22.0625 -23.820312 20.6875 -22.5625 C 19.320312 -21.300781 18.640625 -19.507812 18.640625 -17.1875 C 18.640625 -14.726562 19.363281 -12.859375 20.8125 -11.578125 C 22.269531 -10.296875 24.296875 -9.65625 26.890625 -9.65625 Z M 26.890625 -9.65625 "/></g></g></g><g fill="#5482cd" fill-opacity="1"><g transform="translate(842.992775, 617.249924)"><g><path d="M 15.421875 -64.125 C 12.828125 -64.125 10.710938 -64.910156 9.078125 -66.484375 C 7.453125 -68.066406 6.640625 -70.101562 6.640625 -72.59375 C 6.640625 -75.050781 7.453125 -77.066406 9.078125 -78.640625 C 10.710938 -80.210938 12.828125 -81 15.421875 -81 C 17.148438 -81 18.6875 -80.632812 20.03125 -79.90625 C 21.382812 -79.1875 22.429688 -78.191406 23.171875 -76.921875 C 23.921875 -75.660156 24.296875 -74.21875 24.296875 -72.59375 C 24.296875 -70.96875 23.921875 -69.515625 23.171875 -68.234375 C 22.429688 -66.953125 21.382812 -65.945312 20.03125 -65.21875 C 18.6875 -64.488281 17.148438 -64.125 15.421875 -64.125 Z M 8.25 0 L 8.25 -57.28125 L 22.640625 -57.28125 L 22.640625 0 Z M 8.25 0 "/></g></g></g><g fill="#421795" fill-opacity="1"><g transform="translate(873.843708, 617.249924)"><g><path d="M 14.640625 0.46875 C 12.804688 0.46875 11.1875 0.0976562 9.78125 -0.640625 C 8.382812 -1.390625 7.3125 -2.421875 6.5625 -3.734375 C 5.820312 -5.054688 5.453125 -6.546875 5.453125 -8.203125 C 5.453125 -9.867188 5.820312 -11.359375 6.5625 -12.671875 C 7.3125 -13.984375 8.382812 -15.019531 9.78125 -15.78125 C 11.1875 -16.539062 12.804688 -16.921875 14.640625 -16.921875 C 16.515625 -16.921875 18.148438 -16.546875 19.546875 -15.796875 C 20.953125 -15.054688 22.023438 -14.03125 22.765625 -12.71875 C 23.515625 -11.40625 23.890625 -9.914062 23.890625 -8.25 C 23.890625 -5.726562 23.046875 -3.644531 21.359375 -2 C 19.679688 -0.351562 17.441406 0.46875 14.640625 0.46875 Z M 14.640625 0.46875 "/></g></g></g><g fill="#421795" fill-opacity="1"><g transform="translate(903.179548, 617.249924)"><g><path d="M 14.640625 0.46875 C 12.804688 0.46875 11.1875 0.0976562 9.78125 -0.640625 C 8.382812 -1.390625 7.3125 -2.421875 6.5625 -3.734375 C 5.820312 -5.054688 5.453125 -6.546875 5.453125 -8.203125 C 5.453125 -9.867188 5.820312 -11.359375 6.5625 -12.671875 C 7.3125 -13.984375 8.382812 -15.019531 9.78125 -15.78125 C 11.1875 -16.539062 12.804688 -16.921875 14.640625 -16.921875 C 16.515625 -16.921875 18.148438 -16.546875 19.546875 -15.796875 C 20.953125 -15.054688 22.023438 -14.03125 22.765625 -12.71875 C 23.515625 -11.40625 23.890625 -9.914062 23.890625 -8.25 C 23.890625 -5.726562 23.046875 -3.644531 21.359375 -2 C 19.679688 -0.351562 17.441406 0.46875 14.640625 0.46875 Z M 14.640625 0.46875 "/></g></g></g><g fill="#421795" fill-opacity="1"><g transform="translate(932.515387, 617.249924)"><g><path d="M 14.640625 0.46875 C 12.804688 0.46875 11.1875 0.0976562 9.78125 -0.640625 C 8.382812 -1.390625 7.3125 -2.421875 6.5625 -3.734375 C 5.820312 -5.054688 5.453125 -6.546875 5.453125 -8.203125 C 5.453125 -9.867188 5.820312 -11.359375 6.5625 -12.671875 C 7.3125 -13.984375 8.382812 -15.019531 9.78125 -15.78125 C 11.1875 -16.539062 12.804688 -16.921875 14.640625 -16.921875 C 16.515625 -16.921875 18.148438 -16.546875 19.546875 -15.796875 C 20.953125 -15.054688 22.023438 -14.03125 22.765625 -12.71875 C 23.515625 -11.40625 23.890625 -9.914062 23.890625 -8.25 C 23.890625 -5.726562 23.046875 -3.644531 21.359375 -2 C 19.679688 -0.351562 17.441406 0.46875 14.640625 0.46875 Z M 14.640625 0.46875 "/></g></g></g><g clip-path="url(#8fbefa5cd6)"><path fill="#5482cd" d="M 867.234375 547.671875 C 867.125 547.078125 867.328125 546.46875 867.765625 546.046875 L 873 541.046875 C 874.09375 540 873.484375 538.171875 872 537.96875 L 867.59375 537.375 L 864.828125 537 C 864.234375 536.921875 863.71875 536.542969 863.453125 535.996094 L 861.390625 531.714844 L 860.3125 529.464844 C 859.984375 528.792969 859.34375 528.449219 858.6875 528.449219 C 858.046875 528.449219 857.390625 528.792969 857.0625 529.464844 L 853.921875 535.996094 C 853.65625 536.542969 853.140625 536.921875 852.546875 537 L 845.375 537.96875 C 843.890625 538.171875 843.28125 540 844.375 541.046875 L 849.609375 546.046875 C 850.046875 546.46875 850.25 547.078125 850.140625 547.671875 L 848.84375 554.796875 C 848.625 555.96875 849.5625 556.921875 850.609375 556.921875 C 850.890625 556.921875 851.1875 556.859375 851.46875 556.703125 L 857.84375 553.265625 C 858.109375 553.125 858.40625 553.046875 858.703125 553.046875 C 859 553.046875 859.28125 553.125 859.5625 553.265625 L 865.9375 556.703125 C 866.21875 556.859375 866.5 556.921875 866.796875 556.921875 C 867.84375 556.921875 868.78125 555.96875 868.5625 554.796875 Z M 867.234375 547.671875 " fill-opacity="1" fill-rule="nonzero"/></g><g clip-path="url(#7b976ecf9b)"><path fill="#5482cd" d="M 889.363281 512.746094 C 882.265625 513.683594 875.03125 519.402344 870.1875 524.417969 C 869.46875 525.230469 870.5625 526.308594 871.359375 525.589844 C 873.453125 523.589844 875.703125 521.730469 878.078125 520.121094 C 881.53125 517.824219 885.457031 515.683594 889.613281 515.277344 C 891.300781 515.152344 893.238281 515.464844 894.082031 517.042969 C 895.425781 519.667969 893.816406 523.714844 892.582031 526.214844 C 888.707031 533.636719 882.3125 540 875.234375 544.390625 C 874.046875 545.109375 872.8125 545.75 871.578125 546.3125 C 870.40625 546.828125 869.890625 548.234375 870.46875 549.390625 C 871.015625 550.515625 872.375 550.96875 873.5 550.40625 C 874.921875 549.703125 876.265625 548.921875 877.5625 548.0625 C 885.082031 542.96875 891.660156 535.871094 895.550781 527.621094 C 897.113281 524.105469 898.628906 519.246094 896.535156 515.636719 C 895.019531 513.121094 892.035156 512.402344 889.363281 512.746094 Z M 889.363281 512.746094 " fill-opacity="1" fill-rule="nonzero"/></g></svg>