<svg xmlns="http://www.w3.org/2000/svg" xmlns:xlink="http://www.w3.org/1999/xlink" width="50" zoomAndPan="magnify" viewBox="0 0 37.5 37.499999" height="50" preserveAspectRatio="xMidYMid meet" version="1.0"><defs><g/><clipPath id="16d14f50ac"><path d="M 0.421875 14 L 21 14 L 21 32.8125 L 0.421875 32.8125 Z M 0.421875 14 " clip-rule="nonzero"/></clipPath></defs><g clip-path="url(#16d14f50ac)"><path fill="#5482cd" d="M 16.070312 27 C 16 26.613281 16.132812 26.214844 16.417969 25.9375 L 19.835938 22.671875 C 20.550781 21.988281 20.152344 20.792969 19.183594 20.660156 L 16.304688 20.273438 L 14.5 20.027344 C 14.109375 19.976562 13.773438 19.734375 13.601562 19.375 L 12.253906 16.578125 L 11.546875 15.109375 C 11.335938 14.671875 10.914062 14.445312 10.488281 14.445312 C 10.070312 14.445312 9.640625 14.671875 9.425781 15.109375 L 7.375 19.375 C 7.199219 19.734375 6.863281 19.976562 6.476562 20.027344 L 1.792969 20.660156 C 0.820312 20.792969 0.421875 21.988281 1.136719 22.671875 L 4.558594 25.9375 C 4.84375 26.214844 4.976562 26.613281 4.902344 27 L 4.058594 31.652344 C 3.914062 32.417969 4.527344 33.042969 5.210938 33.042969 C 5.394531 33.042969 5.589844 33 5.773438 32.898438 L 9.9375 30.652344 C 10.109375 30.5625 10.304688 30.511719 10.496094 30.511719 C 10.691406 30.511719 10.875 30.5625 11.058594 30.652344 L 15.222656 32.898438 C 15.40625 33 15.589844 33.042969 15.785156 33.042969 C 16.46875 33.042969 17.082031 32.417969 16.9375 31.652344 Z M 16.070312 27 " fill-opacity="1" fill-rule="nonzero"/></g><path fill="#5482cd" d="M 30.523438 4.1875 C 25.886719 4.800781 21.164062 8.535156 18 11.8125 C 17.53125 12.34375 18.242188 13.046875 18.765625 12.578125 C 20.132812 11.273438 21.601562 10.058594 23.152344 9.007812 C 25.410156 7.507812 27.96875 6.109375 30.683594 5.84375 C 31.789062 5.761719 33.054688 5.964844 33.605469 6.996094 C 34.480469 8.710938 33.429688 11.355469 32.625 12.988281 C 30.09375 17.835938 25.917969 21.988281 21.296875 24.855469 C 20.519531 25.324219 19.714844 25.746094 18.90625 26.113281 C 18.140625 26.449219 17.804688 27.367188 18.183594 28.121094 C 18.539062 28.859375 19.429688 29.152344 20.164062 28.785156 C 21.089844 28.328125 21.96875 27.816406 22.816406 27.253906 C 27.726562 23.929688 32.023438 19.292969 34.5625 13.90625 C 35.585938 11.609375 36.574219 8.433594 35.207031 6.078125 C 34.21875 4.433594 32.265625 3.964844 30.523438 4.1875 Z M 30.523438 4.1875 " fill-opacity="1" fill-rule="nonzero"/><g fill="#5482cd" fill-opacity="1"><g transform="translate(12.11151, 29.407688)"><g><path d="M 0.609375 -0.78125 L 0.609375 -0.703125 L 0.359375 -0.703125 L 0.359375 0 L 0.28125 0 L 0.28125 -0.703125 L 0.03125 -0.703125 L 0.03125 -0.78125 Z M 0.609375 -0.78125 "/></g></g></g></svg>