<svg xmlns="http://www.w3.org/2000/svg" xmlns:xlink="http://www.w3.org/1999/xlink" width="1920" zoomAndPan="magnify" viewBox="0 0 1440 809.999993" height="1080" preserveAspectRatio="xMidYMid meet" version="1.0"><defs><g/><clipPath id="af6e774254"><path d="M 153.519531 0 L 1266.164062 0 L 1266.164062 810 L 153.519531 810 Z M 153.519531 0 " clip-rule="nonzero"/></clipPath><clipPath id="b6632c7a8a"><path d="M 709.84375 -151.324219 C 402.59375 -151.324219 153.519531 97.75 153.519531 405 C 153.519531 712.25 402.59375 961.324219 709.84375 961.324219 C 1017.089844 961.324219 1266.164062 712.25 1266.164062 405 C 1266.164062 97.75 1017.089844 -151.324219 709.84375 -151.324219 Z M 709.84375 -151.324219 " clip-rule="nonzero"/></clipPath><clipPath id="8cb81ac11e"><path d="M 75.320312 669.9375 L 274.257812 669.9375 L 274.257812 718.164062 L 75.320312 718.164062 Z M 75.320312 669.9375 " clip-rule="nonzero"/></clipPath><clipPath id="02f130236a"><path d="M 99.433594 669.9375 L 249.972656 669.9375 C 256.367188 669.9375 262.5 672.476562 267.023438 677 C 271.546875 681.523438 274.085938 687.65625 274.085938 694.050781 C 274.085938 700.445312 271.546875 706.578125 267.023438 711.101562 C 262.5 715.625 256.367188 718.164062 249.972656 718.164062 L 99.433594 718.164062 C 93.039062 718.164062 86.902344 715.625 82.382812 711.101562 C 77.859375 706.578125 75.320312 700.445312 75.320312 694.050781 C 75.320312 687.65625 77.859375 681.523438 82.382812 677 C 86.902344 672.476562 93.039062 669.9375 99.433594 669.9375 Z M 99.433594 669.9375 " clip-rule="nonzero"/></clipPath><clipPath id="a96a051032"><path d="M 586.109375 669.9375 L 825.554688 669.9375 L 825.554688 718.164062 L 586.109375 718.164062 Z M 586.109375 669.9375 " clip-rule="nonzero"/></clipPath><clipPath id="a13396a2d7"><path d="M 610.222656 669.9375 L 801.394531 669.9375 C 807.789062 669.9375 813.921875 672.476562 818.445312 677 C 822.96875 681.523438 825.507812 687.65625 825.507812 694.050781 C 825.507812 700.445312 822.96875 706.578125 818.445312 711.101562 C 813.921875 715.625 807.789062 718.164062 801.394531 718.164062 L 610.222656 718.164062 C 603.828125 718.164062 597.695312 715.625 593.171875 711.101562 C 588.648438 706.578125 586.109375 700.445312 586.109375 694.050781 C 586.109375 687.65625 588.648438 681.523438 593.171875 677 C 597.695312 672.476562 603.828125 669.9375 610.222656 669.9375 Z M 610.222656 669.9375 " clip-rule="nonzero"/></clipPath><clipPath id="bf4dad4548"><path d="M 1058.582031 669.9375 L 1359 669.9375 L 1359 718.164062 L 1058.582031 718.164062 Z M 1058.582031 669.9375 " clip-rule="nonzero"/></clipPath><clipPath id="b448eed56b"><path d="M 1082.695312 669.9375 L 1334.886719 669.9375 C 1341.28125 669.9375 1347.414062 672.476562 1351.9375 677 C 1356.460938 681.523438 1359 687.65625 1359 694.050781 C 1359 700.445312 1356.460938 706.578125 1351.9375 711.101562 C 1347.414062 715.625 1341.28125 718.164062 1334.886719 718.164062 L 1082.695312 718.164062 C 1076.300781 718.164062 1070.167969 715.625 1065.644531 711.101562 C 1061.121094 706.578125 1058.582031 700.445312 1058.582031 694.050781 C 1058.582031 687.65625 1061.121094 681.523438 1065.644531 677 C 1070.167969 672.476562 1076.300781 669.9375 1082.695312 669.9375 Z M 1082.695312 669.9375 " clip-rule="nonzero"/></clipPath><clipPath id="58c69e74b3"><path d="M 1304.261719 81 L 1314 81 L 1314 91 L 1304.261719 91 Z M 1304.261719 81 " clip-rule="nonzero"/></clipPath><clipPath id="a9b509f404"><path d="M 1349 132 L 1359 132 L 1359 141.75 L 1349 141.75 Z M 1349 132 " clip-rule="nonzero"/></clipPath><clipPath id="b78fdd9e46"><path d="M 0 77.121094 L 63 77.121094 L 63 79 L 0 79 Z M 0 77.121094 " clip-rule="nonzero"/></clipPath><clipPath id="1ab9afc418"><path d="M 0 140 L 126.089844 140 L 126.089844 142.371094 L 0 142.371094 Z M 0 140 " clip-rule="nonzero"/></clipPath></defs><rect x="-144" width="1728" fill="#ffffff" y="-80.999999" height="971.999992" fill-opacity="1"/><rect x="-144" width="1728" fill="#212163" y="-80.999999" height="971.999992" fill-opacity="1"/><g clip-path="url(#af6e774254)"><g clip-path="url(#b6632c7a8a)"><path fill="#2c2c6c" d="M 153.519531 -151.324219 L 1266.164062 -151.324219 L 1266.164062 961.324219 L 153.519531 961.324219 Z M 153.519531 -151.324219 " fill-opacity="1" fill-rule="nonzero"/></g></g><g clip-path="url(#8cb81ac11e)"><g clip-path="url(#02f130236a)"><path fill="#fe6544" d="M 75.320312 669.9375 L 274.070312 669.9375 L 274.070312 718.164062 L 75.320312 718.164062 Z M 75.320312 669.9375 " fill-opacity="1" fill-rule="nonzero"/></g></g><g clip-path="url(#a96a051032)"><g clip-path="url(#a13396a2d7)"><path fill="#fe6544" d="M 586.109375 669.9375 L 825.554688 669.9375 L 825.554688 718.164062 L 586.109375 718.164062 Z M 586.109375 669.9375 " fill-opacity="1" fill-rule="nonzero"/></g></g><g clip-path="url(#bf4dad4548)"><g clip-path="url(#b448eed56b)"><path fill="#fe6544" d="M 1058.582031 669.9375 L 1359.066406 669.9375 L 1359.066406 718.164062 L 1058.582031 718.164062 Z M 1058.582031 669.9375 " fill-opacity="1" fill-rule="nonzero"/></g></g><g clip-path="url(#58c69e74b3)"><path fill="#f5f5f5" d="M 1313.648438 85.667969 C 1313.648438 85.972656 1313.617188 86.277344 1313.558594 86.578125 C 1313.5 86.878906 1313.410156 87.167969 1313.292969 87.453125 C 1313.175781 87.734375 1313.03125 88.003906 1312.863281 88.257812 C 1312.691406 88.515625 1312.5 88.75 1312.28125 88.96875 C 1312.066406 89.183594 1311.828125 89.378906 1311.574219 89.546875 C 1311.320312 89.71875 1311.050781 89.859375 1310.769531 89.980469 C 1310.484375 90.097656 1310.191406 90.183594 1309.890625 90.242188 C 1309.589844 90.304688 1309.289062 90.332031 1308.980469 90.332031 C 1308.675781 90.332031 1308.371094 90.304688 1308.070312 90.242188 C 1307.769531 90.183594 1307.480469 90.097656 1307.195312 89.980469 C 1306.914062 89.859375 1306.644531 89.71875 1306.390625 89.546875 C 1306.132812 89.378906 1305.898438 89.183594 1305.683594 88.96875 C 1305.464844 88.75 1305.273438 88.515625 1305.101562 88.257812 C 1304.929688 88.003906 1304.789062 87.734375 1304.671875 87.453125 C 1304.554688 87.167969 1304.464844 86.878906 1304.40625 86.578125 C 1304.34375 86.277344 1304.316406 85.972656 1304.316406 85.667969 C 1304.316406 85.359375 1304.34375 85.058594 1304.40625 84.757812 C 1304.464844 84.457031 1304.554688 84.164062 1304.671875 83.882812 C 1304.789062 83.597656 1304.929688 83.328125 1305.101562 83.074219 C 1305.273438 82.820312 1305.464844 82.582031 1305.683594 82.367188 C 1305.898438 82.148438 1306.132812 81.957031 1306.390625 81.785156 C 1306.644531 81.617188 1306.914062 81.472656 1307.195312 81.355469 C 1307.480469 81.238281 1307.769531 81.148438 1308.070312 81.089844 C 1308.371094 81.03125 1308.675781 81 1308.980469 81 C 1309.289062 81 1309.589844 81.03125 1309.890625 81.089844 C 1310.191406 81.148438 1310.484375 81.238281 1310.769531 81.355469 C 1311.050781 81.472656 1311.320312 81.617188 1311.574219 81.785156 C 1311.828125 81.957031 1312.066406 82.148438 1312.28125 82.367188 C 1312.5 82.582031 1312.691406 82.820312 1312.863281 83.074219 C 1313.03125 83.328125 1313.175781 83.597656 1313.292969 83.882812 C 1313.410156 84.164062 1313.5 84.457031 1313.558594 84.757812 C 1313.617188 85.058594 1313.648438 85.359375 1313.648438 85.667969 Z M 1313.648438 85.667969 " fill-opacity="1" fill-rule="nonzero"/></g><path fill="#f5f5f5" d="M 1336.300781 85.667969 C 1336.300781 85.972656 1336.273438 86.277344 1336.210938 86.578125 C 1336.152344 86.878906 1336.0625 87.167969 1335.945312 87.453125 C 1335.828125 87.734375 1335.6875 88.003906 1335.515625 88.257812 C 1335.34375 88.515625 1335.152344 88.75 1334.933594 88.96875 C 1334.71875 89.183594 1334.484375 89.378906 1334.226562 89.546875 C 1333.972656 89.71875 1333.703125 89.859375 1333.421875 89.980469 C 1333.136719 90.097656 1332.847656 90.183594 1332.546875 90.242188 C 1332.246094 90.304688 1331.941406 90.332031 1331.636719 90.332031 C 1331.328125 90.332031 1331.023438 90.304688 1330.722656 90.242188 C 1330.425781 90.183594 1330.132812 90.097656 1329.847656 89.980469 C 1329.566406 89.859375 1329.296875 89.71875 1329.042969 89.546875 C 1328.789062 89.378906 1328.550781 89.183594 1328.335938 88.96875 C 1328.117188 88.75 1327.925781 88.515625 1327.753906 88.257812 C 1327.585938 88.003906 1327.441406 87.734375 1327.324219 87.453125 C 1327.207031 87.167969 1327.117188 86.878906 1327.058594 86.578125 C 1326.996094 86.277344 1326.96875 85.972656 1326.96875 85.667969 C 1326.96875 85.359375 1326.996094 85.058594 1327.058594 84.757812 C 1327.117188 84.457031 1327.207031 84.164062 1327.324219 83.882812 C 1327.441406 83.597656 1327.585938 83.328125 1327.753906 83.074219 C 1327.925781 82.820312 1328.117188 82.582031 1328.335938 82.367188 C 1328.550781 82.148438 1328.789062 81.957031 1329.042969 81.785156 C 1329.296875 81.617188 1329.566406 81.472656 1329.847656 81.355469 C 1330.132812 81.238281 1330.425781 81.148438 1330.722656 81.089844 C 1331.023438 81.03125 1331.328125 81 1331.636719 81 C 1331.941406 81 1332.246094 81.03125 1332.546875 81.089844 C 1332.847656 81.148438 1333.136719 81.238281 1333.421875 81.355469 C 1333.703125 81.472656 1333.972656 81.617188 1334.226562 81.785156 C 1334.484375 81.957031 1334.71875 82.148438 1334.933594 82.367188 C 1335.152344 82.582031 1335.34375 82.820312 1335.515625 83.074219 C 1335.6875 83.328125 1335.828125 83.597656 1335.945312 83.882812 C 1336.0625 84.164062 1336.152344 84.457031 1336.210938 84.757812 C 1336.273438 85.058594 1336.300781 85.359375 1336.300781 85.667969 Z M 1336.300781 85.667969 " fill-opacity="1" fill-rule="nonzero"/><path fill="#f5f5f5" d="M 1358.949219 85.667969 C 1358.949219 85.972656 1358.921875 86.277344 1358.859375 86.578125 C 1358.800781 86.878906 1358.714844 87.167969 1358.597656 87.453125 C 1358.476562 87.734375 1358.335938 88.003906 1358.164062 88.257812 C 1357.996094 88.515625 1357.800781 88.75 1357.585938 88.96875 C 1357.367188 89.183594 1357.132812 89.378906 1356.875 89.546875 C 1356.621094 89.71875 1356.351562 89.859375 1356.070312 89.980469 C 1355.785156 90.097656 1355.496094 90.183594 1355.195312 90.242188 C 1354.894531 90.304688 1354.589844 90.332031 1354.285156 90.332031 C 1353.976562 90.332031 1353.675781 90.304688 1353.375 90.242188 C 1353.074219 90.183594 1352.78125 90.097656 1352.5 89.980469 C 1352.214844 89.859375 1351.945312 89.71875 1351.691406 89.546875 C 1351.4375 89.378906 1351.199219 89.183594 1350.984375 88.96875 C 1350.765625 88.75 1350.574219 88.515625 1350.402344 88.257812 C 1350.234375 88.003906 1350.089844 87.734375 1349.972656 87.453125 C 1349.855469 87.167969 1349.765625 86.878906 1349.707031 86.578125 C 1349.648438 86.277344 1349.617188 85.972656 1349.617188 85.667969 C 1349.617188 85.359375 1349.648438 85.058594 1349.707031 84.757812 C 1349.765625 84.457031 1349.855469 84.164062 1349.972656 83.882812 C 1350.089844 83.597656 1350.234375 83.328125 1350.402344 83.074219 C 1350.574219 82.820312 1350.765625 82.582031 1350.984375 82.367188 C 1351.199219 82.148438 1351.4375 81.957031 1351.691406 81.785156 C 1351.945312 81.617188 1352.214844 81.472656 1352.5 81.355469 C 1352.78125 81.238281 1353.074219 81.148438 1353.375 81.089844 C 1353.675781 81.03125 1353.976562 81 1354.285156 81 C 1354.589844 81 1354.894531 81.03125 1355.195312 81.089844 C 1355.496094 81.148438 1355.785156 81.238281 1356.070312 81.355469 C 1356.351562 81.472656 1356.621094 81.617188 1356.875 81.785156 C 1357.132812 81.957031 1357.367188 82.148438 1357.585938 82.367188 C 1357.800781 82.582031 1357.996094 82.820312 1358.164062 83.074219 C 1358.335938 83.328125 1358.476562 83.597656 1358.597656 83.882812 C 1358.714844 84.164062 1358.800781 84.457031 1358.859375 84.757812 C 1358.921875 85.058594 1358.949219 85.359375 1358.949219 85.667969 Z M 1358.949219 85.667969 " fill-opacity="1" fill-rule="nonzero"/><path fill="#f5f5f5" d="M 1336.300781 111.523438 C 1336.300781 111.828125 1336.273438 112.132812 1336.210938 112.433594 C 1336.152344 112.734375 1336.0625 113.027344 1335.945312 113.308594 C 1335.828125 113.59375 1335.6875 113.859375 1335.515625 114.117188 C 1335.34375 114.371094 1335.152344 114.605469 1334.933594 114.824219 C 1334.71875 115.039062 1334.484375 115.234375 1334.226562 115.402344 C 1333.972656 115.574219 1333.703125 115.71875 1333.421875 115.835938 C 1333.136719 115.953125 1332.847656 116.039062 1332.546875 116.101562 C 1332.246094 116.160156 1331.941406 116.191406 1331.636719 116.191406 C 1331.328125 116.191406 1331.023438 116.160156 1330.722656 116.101562 C 1330.425781 116.039062 1330.132812 115.953125 1329.847656 115.835938 C 1329.566406 115.71875 1329.296875 115.574219 1329.042969 115.402344 C 1328.789062 115.234375 1328.550781 115.039062 1328.335938 114.824219 C 1328.117188 114.605469 1327.925781 114.371094 1327.753906 114.117188 C 1327.585938 113.859375 1327.441406 113.59375 1327.324219 113.308594 C 1327.207031 113.027344 1327.117188 112.734375 1327.058594 112.433594 C 1326.996094 112.132812 1326.96875 111.828125 1326.96875 111.523438 C 1326.96875 111.214844 1326.996094 110.914062 1327.058594 110.613281 C 1327.117188 110.3125 1327.207031 110.019531 1327.324219 109.738281 C 1327.441406 109.453125 1327.585938 109.183594 1327.753906 108.929688 C 1327.925781 108.675781 1328.117188 108.441406 1328.335938 108.222656 C 1328.550781 108.007812 1328.789062 107.8125 1329.042969 107.644531 C 1329.296875 107.472656 1329.566406 107.328125 1329.847656 107.210938 C 1330.132812 107.09375 1330.425781 107.003906 1330.722656 106.945312 C 1331.023438 106.886719 1331.328125 106.855469 1331.636719 106.855469 C 1331.941406 106.855469 1332.246094 106.886719 1332.546875 106.945312 C 1332.847656 107.003906 1333.136719 107.09375 1333.421875 107.210938 C 1333.703125 107.328125 1333.972656 107.472656 1334.226562 107.644531 C 1334.484375 107.8125 1334.71875 108.007812 1334.933594 108.222656 C 1335.152344 108.441406 1335.34375 108.675781 1335.515625 108.929688 C 1335.6875 109.183594 1335.828125 109.453125 1335.945312 109.738281 C 1336.0625 110.019531 1336.152344 110.3125 1336.210938 110.613281 C 1336.273438 110.914062 1336.300781 111.214844 1336.300781 111.523438 Z M 1336.300781 111.523438 " fill-opacity="1" fill-rule="nonzero"/><path fill="#f5f5f5" d="M 1358.949219 111.523438 C 1358.949219 111.828125 1358.921875 112.132812 1358.859375 112.433594 C 1358.800781 112.734375 1358.714844 113.027344 1358.597656 113.308594 C 1358.476562 113.59375 1358.335938 113.859375 1358.164062 114.117188 C 1357.996094 114.371094 1357.800781 114.605469 1357.585938 114.824219 C 1357.367188 115.039062 1357.132812 115.234375 1356.875 115.402344 C 1356.621094 115.574219 1356.351562 115.71875 1356.070312 115.835938 C 1355.785156 115.953125 1355.496094 116.039062 1355.195312 116.101562 C 1354.894531 116.160156 1354.589844 116.191406 1354.285156 116.191406 C 1353.976562 116.191406 1353.675781 116.160156 1353.375 116.101562 C 1353.074219 116.039062 1352.78125 115.953125 1352.5 115.835938 C 1352.214844 115.71875 1351.945312 115.574219 1351.691406 115.402344 C 1351.4375 115.234375 1351.199219 115.039062 1350.984375 114.824219 C 1350.765625 114.605469 1350.574219 114.371094 1350.402344 114.117188 C 1350.234375 113.859375 1350.089844 113.59375 1349.972656 113.308594 C 1349.855469 113.027344 1349.765625 112.734375 1349.707031 112.433594 C 1349.648438 112.132812 1349.617188 111.828125 1349.617188 111.523438 C 1349.617188 111.214844 1349.648438 110.914062 1349.707031 110.613281 C 1349.765625 110.3125 1349.855469 110.019531 1349.972656 109.738281 C 1350.089844 109.453125 1350.234375 109.183594 1350.402344 108.929688 C 1350.574219 108.675781 1350.765625 108.441406 1350.984375 108.222656 C 1351.199219 108.007812 1351.4375 107.8125 1351.691406 107.644531 C 1351.945312 107.472656 1352.214844 107.328125 1352.5 107.210938 C 1352.78125 107.09375 1353.074219 107.003906 1353.375 106.945312 C 1353.675781 106.886719 1353.976562 106.855469 1354.285156 106.855469 C 1354.589844 106.855469 1354.894531 106.886719 1355.195312 106.945312 C 1355.496094 107.003906 1355.785156 107.09375 1356.070312 107.210938 C 1356.351562 107.328125 1356.621094 107.472656 1356.875 107.644531 C 1357.132812 107.8125 1357.367188 108.007812 1357.585938 108.222656 C 1357.800781 108.441406 1357.996094 108.675781 1358.164062 108.929688 C 1358.335938 109.183594 1358.476562 109.453125 1358.597656 109.738281 C 1358.714844 110.019531 1358.800781 110.3125 1358.859375 110.613281 C 1358.921875 110.914062 1358.949219 111.214844 1358.949219 111.523438 Z M 1358.949219 111.523438 " fill-opacity="1" fill-rule="nonzero"/><g clip-path="url(#a9b509f404)"><path fill="#f5f5f5" d="M 1358.949219 137.378906 C 1358.949219 137.6875 1358.921875 137.988281 1358.859375 138.289062 C 1358.800781 138.589844 1358.714844 138.882812 1358.597656 139.164062 C 1358.476562 139.449219 1358.335938 139.71875 1358.164062 139.972656 C 1357.996094 140.226562 1357.800781 140.460938 1357.585938 140.679688 C 1357.367188 140.894531 1357.132812 141.089844 1356.875 141.257812 C 1356.621094 141.429688 1356.351562 141.574219 1356.070312 141.691406 C 1355.785156 141.808594 1355.496094 141.898438 1355.195312 141.957031 C 1354.894531 142.015625 1354.589844 142.046875 1354.285156 142.046875 C 1353.976562 142.046875 1353.675781 142.015625 1353.375 141.957031 C 1353.074219 141.898438 1352.78125 141.808594 1352.5 141.691406 C 1352.214844 141.574219 1351.945312 141.429688 1351.691406 141.257812 C 1351.4375 141.089844 1351.199219 140.894531 1350.984375 140.679688 C 1350.765625 140.460938 1350.574219 140.226562 1350.402344 139.972656 C 1350.234375 139.71875 1350.089844 139.449219 1349.972656 139.164062 C 1349.855469 138.882812 1349.765625 138.589844 1349.707031 138.289062 C 1349.648438 137.988281 1349.617188 137.6875 1349.617188 137.378906 C 1349.617188 137.074219 1349.648438 136.769531 1349.707031 136.46875 C 1349.765625 136.167969 1349.855469 135.875 1349.972656 135.59375 C 1350.089844 135.308594 1350.234375 135.042969 1350.402344 134.785156 C 1350.574219 134.53125 1350.765625 134.296875 1350.984375 134.078125 C 1351.199219 133.863281 1351.4375 133.667969 1351.691406 133.5 C 1351.945312 133.328125 1352.214844 133.183594 1352.5 133.066406 C 1352.78125 132.949219 1353.074219 132.863281 1353.375 132.800781 C 1353.675781 132.742188 1353.976562 132.710938 1354.285156 132.710938 C 1354.589844 132.710938 1354.894531 132.742188 1355.195312 132.800781 C 1355.496094 132.863281 1355.785156 132.949219 1356.070312 133.066406 C 1356.351562 133.183594 1356.621094 133.328125 1356.875 133.5 C 1357.132812 133.667969 1357.367188 133.863281 1357.585938 134.078125 C 1357.800781 134.296875 1357.996094 134.53125 1358.164062 134.785156 C 1358.335938 135.042969 1358.476562 135.308594 1358.597656 135.59375 C 1358.714844 135.875 1358.800781 136.167969 1358.859375 136.46875 C 1358.921875 136.769531 1358.949219 137.074219 1358.949219 137.378906 Z M 1358.949219 137.378906 " fill-opacity="1" fill-rule="nonzero"/></g><g clip-path="url(#b78fdd9e46)"><path fill="#ffffff" d="M 62.894531 78.875 L -63.425781 78.875 L -65.160156 77.140625 L 61.15625 77.140625 Z M 62.894531 78.875 " fill-opacity="1" fill-rule="nonzero"/></g><path fill="#ffffff" d="M 73.417969 89.402344 L -52.898438 89.402344 L -54.632812 87.667969 L 71.683594 87.667969 Z M 73.417969 89.402344 " fill-opacity="1" fill-rule="nonzero"/><path fill="#ffffff" d="M 83.945312 99.929688 L -42.371094 99.929688 L -44.105469 98.195312 L 82.210938 98.191406 Z M 83.945312 99.929688 " fill-opacity="1" fill-rule="nonzero"/><path fill="#ffffff" d="M 94.472656 110.457031 L -31.84375 110.457031 L -33.582031 108.722656 L 92.734375 108.71875 Z M 94.472656 110.457031 " fill-opacity="1" fill-rule="nonzero"/><path fill="#ffffff" d="M 105 120.984375 L -21.320312 120.984375 L -23.054688 119.246094 L 103.261719 119.246094 Z M 105 120.984375 " fill-opacity="1" fill-rule="nonzero"/><path fill="#ffffff" d="M 115.527344 131.507812 L -10.792969 131.507812 L -12.527344 129.773438 L 113.789062 129.773438 Z M 115.527344 131.507812 " fill-opacity="1" fill-rule="nonzero"/><g clip-path="url(#1ab9afc418)"><path fill="#ffffff" d="M 126.050781 142.035156 L -0.265625 142.035156 L -2 140.300781 L 124.316406 140.296875 Z M 126.050781 142.035156 " fill-opacity="1" fill-rule="nonzero"/></g><g fill="#fe6544" fill-opacity="1"><g transform="translate(557.095635, 384.070313)"><g><path d="M 25.203125 0 L 25.203125 -55.09375 L 3 -55.09375 L 3 -70 L 63.296875 -70 L 63.296875 -55.09375 L 41.09375 -55.09375 L 41.09375 0 Z M 25.203125 0 "/></g></g></g><g fill="#fe6544" fill-opacity="1"><g transform="translate(623.393075, 384.070313)"><g><path d="M 7.59375 0 L 7.59375 -74 L 22.796875 -74 L 22.796875 -48.5 C 24.796875 -50.300781 27.128906 -51.648438 29.796875 -52.546875 C 32.460938 -53.453125 35.265625 -53.90625 38.203125 -53.90625 C 45.003906 -53.90625 50.335938 -51.800781 54.203125 -47.59375 C 58.066406 -43.394531 60 -37.628906 60 -30.296875 L 60 0 L 44.796875 0 L 44.796875 -28.796875 C 44.796875 -32.660156 43.878906 -35.644531 42.046875 -37.75 C 40.210938 -39.851562 37.664062 -40.90625 34.40625 -40.90625 C 30.9375 -40.90625 28.132812 -39.71875 26 -37.34375 C 23.863281 -34.976562 22.796875 -31.726562 22.796875 -27.59375 L 22.796875 0 Z M 7.59375 0 "/></g></g></g><g fill="#fe6544" fill-opacity="1"><g transform="translate(689.99051, 384.070313)"><g><path d="M 25.09375 1 C 18.894531 1 13.992188 -0.445312 10.390625 -3.34375 C 6.796875 -6.25 5 -10.234375 5 -15.296875 C 5 -20.160156 6.613281 -24.039062 9.84375 -26.9375 C 13.082031 -29.84375 17.4375 -31.296875 22.90625 -31.296875 L 41.90625 -31.296875 L 41.90625 -33.703125 C 41.90625 -36.296875 40.96875 -38.375 39.09375 -39.9375 C 37.226562 -41.507812 34.796875 -42.296875 31.796875 -42.296875 C 29.328125 -42.296875 27.226562 -41.726562 25.5 -40.59375 C 23.769531 -39.46875 22.671875 -37.96875 22.203125 -36.09375 L 7.59375 -36.09375 C 8.53125 -41.832031 11.113281 -46.234375 15.34375 -49.296875 C 19.582031 -52.367188 25.035156 -53.90625 31.703125 -53.90625 C 39.566406 -53.90625 45.710938 -51.921875 50.140625 -47.953125 C 54.578125 -43.984375 56.796875 -38.53125 56.796875 -31.59375 L 56.796875 0 L 45.5 0 L 43.796875 -6.09375 C 39.203125 -1.363281 32.96875 1 25.09375 1 Z M 20 -15.90625 C 20 -14.101562 20.78125 -12.648438 22.34375 -11.546875 C 23.914062 -10.453125 26 -9.90625 28.59375 -9.90625 C 32.394531 -9.90625 35.546875 -11.003906 38.046875 -13.203125 C 40.546875 -15.398438 41.863281 -18.265625 42 -21.796875 L 27.59375 -21.796875 C 25.332031 -21.796875 23.5 -21.257812 22.09375 -20.1875 C 20.695312 -19.125 20 -17.695312 20 -15.90625 Z M 20 -15.90625 "/></g></g></g><g fill="#fe6544" fill-opacity="1"><g transform="translate(753.388075, 384.070313)"><g><path d="M 7.59375 0 L 7.59375 -52.5 L 18.90625 -52.5 L 20.5 -46.59375 C 22.632812 -49.0625 25.21875 -50.894531 28.25 -52.09375 C 31.28125 -53.300781 34.53125 -53.90625 38 -53.90625 C 44.863281 -53.90625 50.242188 -51.769531 54.140625 -47.5 C 58.046875 -43.226562 60 -37.460938 60 -30.203125 L 60 0 L 44.796875 0 L 44.796875 -28.59375 C 44.796875 -32.46875 43.878906 -35.488281 42.046875 -37.65625 C 40.210938 -39.820312 37.664062 -40.90625 34.40625 -40.90625 C 30.9375 -40.90625 28.132812 -39.703125 26 -37.296875 C 23.863281 -34.898438 22.796875 -31.632812 22.796875 -27.5 L 22.796875 0 Z M 7.59375 0 "/></g></g></g><g fill="#fe6544" fill-opacity="1"><g transform="translate(819.985499, 384.070313)"><g><path d="M 7.59375 0 L 7.59375 -74 L 22.796875 -74 L 22.796875 -33.59375 L 26.703125 -33.59375 C 29.898438 -33.59375 32.316406 -34.109375 33.953125 -35.140625 C 35.585938 -36.179688 36.90625 -38.164062 37.90625 -41.09375 L 41.59375 -52.5 L 58 -52.5 L 51.90625 -35.796875 C 50.238281 -31.128906 48.003906 -27.5625 45.203125 -25.09375 L 60.296875 0 L 42.59375 0 L 31 -20 L 22.796875 -20 L 22.796875 0 Z M 7.59375 0 "/></g></g></g><g fill="#ffffff" fill-opacity="1"><g transform="translate(629.107766, 474.142731)"><g><path d="M 22.484375 0 L 22.484375 -20.234375 L 1.359375 -56.203125 L 9.546875 -56.203125 L 18.703125 -40.46875 L 26.015625 -27.78125 L 42.546875 -56.203125 L 50.5 -56.203125 L 29.390625 -20.234375 L 29.390625 0 Z M 22.484375 0 "/></g></g></g><g fill="#ffffff" fill-opacity="1"><g transform="translate(680.971963, 474.142731)"><g><path d="M 26.25 1.046875 C 21.914062 1.046875 18.085938 0.109375 14.765625 -1.765625 C 11.453125 -3.640625 8.859375 -6.234375 6.984375 -9.546875 C 5.109375 -12.867188 4.171875 -16.644531 4.171875 -20.875 C 4.171875 -25.15625 5.109375 -28.925781 6.984375 -32.1875 C 8.859375 -35.457031 11.453125 -38.023438 14.765625 -39.890625 C 18.085938 -41.765625 21.914062 -42.703125 26.25 -42.703125 C 30.582031 -42.703125 34.40625 -41.765625 37.71875 -39.890625 C 41.039062 -38.023438 43.640625 -35.457031 45.515625 -32.1875 C 47.390625 -28.925781 48.328125 -25.15625 48.328125 -20.875 C 48.328125 -16.644531 47.390625 -12.867188 45.515625 -9.546875 C 43.640625 -6.234375 41.039062 -3.640625 37.71875 -1.765625 C 34.40625 0.109375 30.582031 1.046875 26.25 1.046875 Z M 10.921875 -20.875 C 10.921875 -17.820312 11.578125 -15.128906 12.890625 -12.796875 C 14.203125 -10.472656 16.003906 -8.664062 18.296875 -7.375 C 20.597656 -6.09375 23.25 -5.453125 26.25 -5.453125 C 29.25 -5.453125 31.898438 -6.09375 34.203125 -7.375 C 36.503906 -8.664062 38.304688 -10.472656 39.609375 -12.796875 C 40.921875 -15.128906 41.578125 -17.820312 41.578125 -20.875 C 41.578125 -23.925781 40.921875 -26.601562 39.609375 -28.90625 C 38.304688 -31.207031 36.503906 -33.007812 34.203125 -34.3125 C 31.898438 -35.625 29.25 -36.28125 26.25 -36.28125 C 23.25 -36.28125 20.597656 -35.625 18.296875 -34.3125 C 16.003906 -33.007812 14.203125 -31.207031 12.890625 -28.90625 C 11.578125 -26.601562 10.921875 -23.925781 10.921875 -20.875 Z M 10.921875 -20.875 "/></g></g></g><g fill="#ffffff" fill-opacity="1"><g transform="translate(733.478438, 474.142731)"><g><path d="M 24.078125 1.046875 C 18.617188 1.046875 14.347656 -0.71875 11.265625 -4.25 C 8.191406 -7.78125 6.65625 -12.519531 6.65625 -18.46875 L 6.65625 -41.671875 L 13.40625 -41.671875 L 13.40625 -19.109375 C 13.40625 -14.929688 14.4375 -11.609375 16.5 -9.140625 C 18.5625 -6.679688 21.382812 -5.453125 24.96875 -5.453125 C 28.875 -5.453125 32.046875 -6.84375 34.484375 -9.625 C 36.921875 -12.414062 38.140625 -16.082031 38.140625 -20.625 L 38.140625 -41.671875 L 44.875 -41.671875 L 44.875 0 L 39.34375 0 L 38.609375 -6.09375 C 36.796875 -3.632812 34.617188 -1.828125 32.078125 -0.671875 C 29.535156 0.472656 26.867188 1.046875 24.078125 1.046875 Z M 24.078125 1.046875 "/></g></g></g><g fill="#ffffff" fill-opacity="1"><g transform="translate(785.82434, 474.142731)"><g><path d="M 8.90625 -16.78125 L 8.75 -56.203125 L 16.296875 -56.203125 L 16.140625 -16.78125 Z M 7.0625 -4.65625 C 7.0625 -6.207031 7.554688 -7.460938 8.546875 -8.421875 C 9.535156 -9.390625 10.863281 -9.875 12.53125 -9.875 C 14.1875 -9.875 15.492188 -9.390625 16.453125 -8.421875 C 17.421875 -7.460938 17.90625 -6.207031 17.90625 -4.65625 C 17.90625 -3.15625 17.421875 -1.894531 16.453125 -0.875 C 15.492188 0.132812 14.1875 0.640625 12.53125 0.640625 C 10.863281 0.640625 9.535156 0.132812 8.546875 -0.875 C 7.554688 -1.894531 7.0625 -3.15625 7.0625 -4.65625 Z M 7.0625 -4.65625 "/></g></g></g><g fill="#ffffff" fill-opacity="1"><g transform="translate(117.426476, 701.383113)"><g><path d="M 12.796875 0 L 10.15625 0 L 3.65625 -12.125 C 3.6875 -11.3125 3.703125 -10.441406 3.703125 -9.515625 C 3.710938 -8.585938 3.71875 -7.71875 3.71875 -6.90625 L 3.71875 0 L 2 0 L 2 -13.796875 L 4.640625 -13.796875 L 11.140625 -1.6875 C 11.128906 -2.5 11.113281 -3.367188 11.09375 -4.296875 C 11.082031 -5.222656 11.078125 -6.09375 11.078125 -6.90625 L 11.078125 -13.796875 L 12.765625 -13.796875 Z M 12.796875 0 "/></g></g></g><g fill="#ffffff" fill-opacity="1"><g transform="translate(131.78081, 701.383113)"><g><path d="M 5.859375 -10.875 C 7.054688 -10.875 8.046875 -10.617188 8.828125 -10.109375 C 9.609375 -9.597656 10.1875 -8.914062 10.5625 -8.0625 C 10.9375 -7.21875 11.125 -6.296875 11.125 -5.296875 C 11.125 -4.304688 10.9375 -3.382812 10.5625 -2.53125 C 10.1875 -1.6875 9.609375 -1.003906 8.828125 -0.484375 C 8.046875 0.0234375 7.054688 0.28125 5.859375 0.28125 C 4.660156 0.28125 3.671875 0.0234375 2.890625 -0.484375 C 2.117188 -1.003906 1.539062 -1.6875 1.15625 -2.53125 C 0.78125 -3.382812 0.59375 -4.304688 0.59375 -5.296875 C 0.59375 -6.296875 0.78125 -7.21875 1.15625 -8.0625 C 1.539062 -8.914062 2.117188 -9.597656 2.890625 -10.109375 C 3.671875 -10.617188 4.660156 -10.875 5.859375 -10.875 Z M 5.859375 -1.046875 C 6.578125 -1.046875 7.1875 -1.226562 7.6875 -1.59375 C 8.1875 -1.957031 8.566406 -2.457031 8.828125 -3.09375 C 9.097656 -3.738281 9.234375 -4.472656 9.234375 -5.296875 C 9.234375 -6.554688 8.9375 -7.582031 8.34375 -8.375 C 7.75 -9.164062 6.921875 -9.5625 5.859375 -9.5625 C 4.796875 -9.5625 3.96875 -9.164062 3.375 -8.375 C 2.78125 -7.582031 2.484375 -6.554688 2.484375 -5.296875 C 2.484375 -4.472656 2.613281 -3.738281 2.875 -3.09375 C 3.144531 -2.457031 3.53125 -1.957031 4.03125 -1.59375 C 4.53125 -1.226562 5.140625 -1.046875 5.859375 -1.046875 Z M 5.859375 -1.046875 "/></g></g></g><g fill="#ffffff" fill-opacity="1"><g transform="translate(143.496184, 701.383113)"><g><path d="M 10.15625 -10.59375 L 6.140625 0 L 4.046875 0 L 0.015625 -10.59375 L 1.921875 -10.59375 L 5.15625 -1.265625 L 8.34375 -10.59375 Z M 10.15625 -10.59375 "/></g></g></g><g fill="#ffffff" fill-opacity="1"><g transform="translate(153.772131, 701.383113)"><g><path d="M 2.015625 -2.28125 C 2.390625 -2.28125 2.695312 -2.160156 2.9375 -1.921875 C 3.175781 -1.679688 3.296875 -1.375 3.296875 -1 C 3.296875 -0.625 3.175781 -0.316406 2.9375 -0.078125 C 2.695312 0.160156 2.390625 0.28125 2.015625 0.28125 C 1.640625 0.28125 1.332031 0.160156 1.09375 -0.078125 C 0.851562 -0.316406 0.734375 -0.625 0.734375 -1 C 0.734375 -1.375 0.851562 -1.679688 1.09375 -1.921875 C 1.332031 -2.160156 1.640625 -2.28125 2.015625 -2.28125 Z M 2.015625 -2.28125 "/></g></g></g><g fill="#ffffff" fill-opacity="1"><g transform="translate(158.170393, 701.383113)"><g/></g></g><g fill="#ffffff" fill-opacity="1"><g transform="translate(162.488695, 701.383113)"><g><path d="M 5.859375 -14.078125 C 7.410156 -14.078125 8.609375 -13.5625 9.453125 -12.53125 C 10.304688 -11.507812 10.734375 -9.851562 10.734375 -7.5625 C 10.734375 -5.707031 10.488281 -4.203125 10 -3.046875 C 9.507812 -1.890625 8.851562 -1.046875 8.03125 -0.515625 C 7.21875 0.015625 6.34375 0.28125 5.40625 0.28125 C 4.226562 0.28125 3.25 -0.0507812 2.46875 -0.71875 C 1.6875 -1.394531 1.242188 -2.300781 1.140625 -3.4375 L 1.125 -3.640625 L 2.953125 -3.640625 L 3 -3.4375 C 3.320312 -1.863281 4.171875 -1.078125 5.546875 -1.078125 C 6.171875 -1.078125 6.722656 -1.253906 7.203125 -1.609375 C 7.679688 -1.972656 8.066406 -2.5625 8.359375 -3.375 C 8.648438 -4.1875 8.816406 -5.257812 8.859375 -6.59375 L 8.078125 -5.359375 C 7.703125 -5.054688 7.3125 -4.832031 6.90625 -4.6875 C 6.507812 -4.550781 6.0625 -4.484375 5.5625 -4.484375 C 4.601562 -4.484375 3.78125 -4.679688 3.09375 -5.078125 C 2.414062 -5.484375 1.894531 -6.035156 1.53125 -6.734375 C 1.164062 -7.441406 0.984375 -8.25 0.984375 -9.15625 C 0.984375 -10.144531 1.195312 -11.003906 1.625 -11.734375 C 2.050781 -12.472656 2.628906 -13.046875 3.359375 -13.453125 C 4.085938 -13.867188 4.921875 -14.078125 5.859375 -14.078125 Z M 5.859375 -5.84375 C 6.378906 -5.84375 6.859375 -5.972656 7.296875 -6.234375 C 7.734375 -6.492188 8.082031 -6.882812 8.34375 -7.40625 C 8.601562 -7.925781 8.734375 -8.5625 8.734375 -9.3125 C 8.734375 -9.957031 8.613281 -10.535156 8.375 -11.046875 C 8.132812 -11.554688 7.800781 -11.960938 7.375 -12.265625 C 6.945312 -12.566406 6.441406 -12.71875 5.859375 -12.71875 C 5.003906 -12.71875 4.296875 -12.40625 3.734375 -11.78125 C 3.179688 -11.164062 2.90625 -10.359375 2.90625 -9.359375 C 2.90625 -8.722656 3.003906 -8.132812 3.203125 -7.59375 C 3.398438 -7.0625 3.71875 -6.632812 4.15625 -6.3125 C 4.59375 -6 5.160156 -5.84375 5.859375 -5.84375 Z M 5.859375 -5.84375 "/></g></g></g><g fill="#ffffff" fill-opacity="1"><g transform="translate(174.084122, 701.383113)"><g><path d="M 2.796875 -1.796875 L 1 2.40625 L -0.625 2.40625 L 0.9375 -2 L 2.796875 -2 Z M 2.796875 -1.796875 "/></g></g></g><g fill="#ffffff" fill-opacity="1"><g transform="translate(178.482384, 701.383113)"><g/></g></g><g fill="#ffffff" fill-opacity="1"><g transform="translate(182.800686, 701.383113)"><g><path d="M 3.703125 -1.40625 L 10.453125 -1.40625 L 10.453125 0 L 1.203125 0 L 1.203125 -0.984375 L 6.203125 -6.078125 C 7.015625 -6.898438 7.613281 -7.601562 8 -8.1875 C 8.394531 -8.78125 8.59375 -9.410156 8.59375 -10.078125 C 8.59375 -10.785156 8.382812 -11.398438 7.96875 -11.921875 C 7.5625 -12.453125 6.945312 -12.71875 6.125 -12.71875 C 5.226562 -12.71875 4.554688 -12.453125 4.109375 -11.921875 C 3.660156 -11.398438 3.382812 -10.65625 3.28125 -9.6875 L 3.265625 -9.484375 L 1.546875 -9.484375 L 1.5625 -9.6875 C 1.707031 -11.125 2.191406 -12.210938 3.015625 -12.953125 C 3.847656 -13.703125 4.945312 -14.078125 6.3125 -14.078125 C 7.257812 -14.078125 8.039062 -13.90625 8.65625 -13.5625 C 9.28125 -13.21875 9.742188 -12.753906 10.046875 -12.171875 C 10.359375 -11.597656 10.515625 -10.96875 10.515625 -10.28125 C 10.515625 -9.65625 10.394531 -9.070312 10.15625 -8.53125 C 9.925781 -7.988281 9.566406 -7.425781 9.078125 -6.84375 C 8.585938 -6.269531 7.945312 -5.59375 7.15625 -4.8125 Z M 3.703125 -1.40625 "/></g></g></g><g fill="#ffffff" fill-opacity="1"><g transform="translate(194.396114, 701.383113)"><g><path d="M 5.796875 -14.078125 C 6.742188 -14.078125 7.535156 -13.894531 8.171875 -13.53125 C 8.816406 -13.164062 9.328125 -12.65625 9.703125 -12 C 10.085938 -11.34375 10.363281 -10.578125 10.53125 -9.703125 C 10.695312 -8.835938 10.78125 -7.90625 10.78125 -6.90625 C 10.78125 -5.90625 10.695312 -4.96875 10.53125 -4.09375 C 10.363281 -3.226562 10.085938 -2.460938 9.703125 -1.796875 C 9.328125 -1.140625 8.816406 -0.628906 8.171875 -0.265625 C 7.535156 0.0976562 6.742188 0.28125 5.796875 0.28125 C 4.847656 0.28125 4.050781 0.0976562 3.40625 -0.265625 C 2.769531 -0.628906 2.257812 -1.140625 1.875 -1.796875 C 1.5 -2.460938 1.226562 -3.226562 1.0625 -4.09375 C 0.894531 -4.96875 0.8125 -5.90625 0.8125 -6.90625 C 0.8125 -7.90625 0.894531 -8.835938 1.0625 -9.703125 C 1.226562 -10.578125 1.5 -11.34375 1.875 -12 C 2.257812 -12.65625 2.769531 -13.164062 3.40625 -13.53125 C 4.050781 -13.894531 4.847656 -14.078125 5.796875 -14.078125 Z M 5.796875 -1.078125 C 6.898438 -1.078125 7.6875 -1.597656 8.15625 -2.640625 C 8.625 -3.679688 8.859375 -5.101562 8.859375 -6.90625 C 8.859375 -8.71875 8.625 -10.140625 8.15625 -11.171875 C 7.6875 -12.203125 6.898438 -12.71875 5.796875 -12.71875 C 4.703125 -12.71875 3.914062 -12.203125 3.4375 -11.171875 C 2.96875 -10.140625 2.734375 -8.71875 2.734375 -6.90625 C 2.734375 -5.101562 2.96875 -3.679688 3.4375 -2.640625 C 3.914062 -1.597656 4.703125 -1.078125 5.796875 -1.078125 Z M 5.796875 -1.078125 "/></g></g></g><g fill="#ffffff" fill-opacity="1"><g transform="translate(205.991542, 701.383113)"><g><path d="M 3.703125 -1.40625 L 10.453125 -1.40625 L 10.453125 0 L 1.203125 0 L 1.203125 -0.984375 L 6.203125 -6.078125 C 7.015625 -6.898438 7.613281 -7.601562 8 -8.1875 C 8.394531 -8.78125 8.59375 -9.410156 8.59375 -10.078125 C 8.59375 -10.785156 8.382812 -11.398438 7.96875 -11.921875 C 7.5625 -12.453125 6.945312 -12.71875 6.125 -12.71875 C 5.226562 -12.71875 4.554688 -12.453125 4.109375 -11.921875 C 3.660156 -11.398438 3.382812 -10.65625 3.28125 -9.6875 L 3.265625 -9.484375 L 1.546875 -9.484375 L 1.5625 -9.6875 C 1.707031 -11.125 2.191406 -12.210938 3.015625 -12.953125 C 3.847656 -13.703125 4.945312 -14.078125 6.3125 -14.078125 C 7.257812 -14.078125 8.039062 -13.90625 8.65625 -13.5625 C 9.28125 -13.21875 9.742188 -12.753906 10.046875 -12.171875 C 10.359375 -11.597656 10.515625 -10.96875 10.515625 -10.28125 C 10.515625 -9.65625 10.394531 -9.070312 10.15625 -8.53125 C 9.925781 -7.988281 9.566406 -7.425781 9.078125 -6.84375 C 8.585938 -6.269531 7.945312 -5.59375 7.15625 -4.8125 Z M 3.703125 -1.40625 "/></g></g></g><g fill="#ffffff" fill-opacity="1"><g transform="translate(217.58697, 701.383113)"><g><path d="M 10.953125 -3.484375 L 9.21875 -3.484375 L 9.21875 0 L 7.5 0 L 7.5 -3.484375 L 0.65625 -3.484375 L 0.65625 -4.34375 L 7.5 -13.796875 L 9.21875 -13.796875 L 9.21875 -4.875 L 10.953125 -4.875 Z M 7.5 -4.875 L 7.5 -11.5 C 7.34375 -11.226562 7.171875 -10.945312 6.984375 -10.65625 C 6.796875 -10.363281 6.585938 -10.054688 6.359375 -9.734375 L 2.84375 -4.875 Z M 7.5 -4.875 "/></g></g></g><g fill="#ffffff" fill-opacity="1"><g transform="translate(658.356297, 701.383113)"><g><path d="M 8.078125 -13.71875 C 9.179688 -13.582031 10.050781 -13.175781 10.6875 -12.5 C 11.332031 -11.820312 11.65625 -10.894531 11.65625 -9.71875 C 11.65625 -8.945312 11.492188 -8.273438 11.171875 -7.703125 C 10.859375 -7.140625 10.429688 -6.691406 9.890625 -6.359375 C 9.347656 -6.023438 8.742188 -5.8125 8.078125 -5.71875 C 7.773438 -5.675781 7.484375 -5.648438 7.203125 -5.640625 C 6.929688 -5.640625 6.625 -5.640625 6.28125 -5.640625 L 3.71875 -5.640625 L 3.71875 0 L 2 0 L 2 -13.796875 L 6.28125 -13.796875 C 6.625 -13.796875 6.929688 -13.789062 7.203125 -13.78125 C 7.484375 -13.78125 7.773438 -13.757812 8.078125 -13.71875 Z M 7.984375 -7.1875 C 8.472656 -7.289062 8.898438 -7.535156 9.265625 -7.921875 C 9.628906 -8.316406 9.8125 -8.914062 9.8125 -9.71875 C 9.8125 -10.519531 9.628906 -11.113281 9.265625 -11.5 C 8.898438 -11.894531 8.472656 -12.148438 7.984375 -12.265625 C 7.796875 -12.296875 7.566406 -12.316406 7.296875 -12.328125 C 7.035156 -12.347656 6.75 -12.359375 6.4375 -12.359375 L 3.71875 -12.359375 L 3.71875 -7.078125 L 6.4375 -7.078125 C 6.75 -7.078125 7.035156 -7.082031 7.296875 -7.09375 C 7.566406 -7.113281 7.796875 -7.144531 7.984375 -7.1875 Z M 7.984375 -7.1875 "/></g></g></g><g fill="#ffffff" fill-opacity="1"><g transform="translate(670.311584, 701.383113)"><g><path d="M 5.859375 -10.875 C 7.054688 -10.875 8.046875 -10.617188 8.828125 -10.109375 C 9.609375 -9.597656 10.1875 -8.914062 10.5625 -8.0625 C 10.9375 -7.21875 11.125 -6.296875 11.125 -5.296875 C 11.125 -4.304688 10.9375 -3.382812 10.5625 -2.53125 C 10.1875 -1.6875 9.609375 -1.003906 8.828125 -0.484375 C 8.046875 0.0234375 7.054688 0.28125 5.859375 0.28125 C 4.660156 0.28125 3.671875 0.0234375 2.890625 -0.484375 C 2.117188 -1.003906 1.539062 -1.6875 1.15625 -2.53125 C 0.78125 -3.382812 0.59375 -4.304688 0.59375 -5.296875 C 0.59375 -6.296875 0.78125 -7.21875 1.15625 -8.0625 C 1.539062 -8.914062 2.117188 -9.597656 2.890625 -10.109375 C 3.671875 -10.617188 4.660156 -10.875 5.859375 -10.875 Z M 5.859375 -1.046875 C 6.578125 -1.046875 7.1875 -1.226562 7.6875 -1.59375 C 8.1875 -1.957031 8.566406 -2.457031 8.828125 -3.09375 C 9.097656 -3.738281 9.234375 -4.472656 9.234375 -5.296875 C 9.234375 -6.554688 8.9375 -7.582031 8.34375 -8.375 C 7.75 -9.164062 6.921875 -9.5625 5.859375 -9.5625 C 4.796875 -9.5625 3.96875 -9.164062 3.375 -8.375 C 2.78125 -7.582031 2.484375 -6.554688 2.484375 -5.296875 C 2.484375 -4.472656 2.613281 -3.738281 2.875 -3.09375 C 3.144531 -2.457031 3.53125 -1.957031 4.03125 -1.59375 C 4.53125 -1.226562 5.140625 -1.046875 5.859375 -1.046875 Z M 5.859375 -1.046875 "/></g></g></g><g fill="#ffffff" fill-opacity="1"><g transform="translate(682.026958, 701.383113)"><g><path d="M 5.640625 -10.84375 C 5.929688 -10.84375 6.171875 -10.796875 6.359375 -10.703125 L 6.359375 -9.40625 C 5.460938 -9.46875 4.710938 -9.222656 4.109375 -8.671875 C 3.503906 -8.128906 3.203125 -7.253906 3.203125 -6.046875 L 3.203125 0 L 1.484375 0 L 1.484375 -10.59375 L 3.203125 -10.59375 L 3.203125 -8.9375 L 4.15625 -10.359375 C 4.625 -10.679688 5.117188 -10.84375 5.640625 -10.84375 Z M 5.640625 -10.84375 "/></g></g></g><g fill="#ffffff" fill-opacity="1"><g transform="translate(688.624351, 701.383113)"><g><path d="M 3.546875 -9.203125 L 3.546875 -3.09375 C 3.546875 -2.925781 3.546875 -2.785156 3.546875 -2.671875 C 3.546875 -2.554688 3.550781 -2.425781 3.5625 -2.28125 C 3.601562 -1.769531 3.753906 -1.441406 4.015625 -1.296875 C 4.273438 -1.148438 4.738281 -1.117188 5.40625 -1.203125 L 5.40625 0.0625 C 5.144531 0.101562 4.894531 0.128906 4.65625 0.140625 C 4.414062 0.148438 4.175781 0.15625 3.9375 0.15625 C 3.28125 0.15625 2.78125 0.0078125 2.4375 -0.28125 C 2.09375 -0.570312 1.894531 -1.046875 1.84375 -1.703125 C 1.820312 -1.847656 1.8125 -2.03125 1.8125 -2.25 C 1.8125 -2.46875 1.8125 -2.722656 1.8125 -3.015625 L 1.8125 -9.203125 L 0.40625 -9.203125 L 0.40625 -10.515625 L 1.8125 -10.515625 L 1.8125 -12.984375 L 3.546875 -12.984375 L 3.546875 -10.515625 L 5.515625 -10.515625 L 5.515625 -9.203125 Z M 3.546875 -9.203125 "/></g></g></g><g fill="#ffffff" fill-opacity="1"><g transform="translate(694.881877, 701.383113)"><g><path d="M 3.34375 -12.640625 C 3.320312 -12.503906 3.304688 -12.328125 3.296875 -12.109375 C 3.285156 -11.890625 3.28125 -11.707031 3.28125 -11.5625 L 3.28125 -10.515625 L 5.453125 -10.515625 L 5.453125 -9.203125 L 3.28125 -9.203125 L 3.28125 0 L 1.5625 0 L 1.5625 -9.203125 L 0.421875 -9.203125 L 0.421875 -10.515625 L 1.5625 -10.515625 L 1.5625 -11.40625 C 1.5625 -11.601562 1.566406 -11.820312 1.578125 -12.0625 C 1.585938 -12.300781 1.601562 -12.507812 1.625 -12.6875 C 1.71875 -13.457031 2.007812 -14.046875 2.5 -14.453125 C 2.988281 -14.867188 3.628906 -15.078125 4.421875 -15.078125 C 4.648438 -15.078125 4.863281 -15.066406 5.0625 -15.046875 C 5.269531 -15.023438 5.460938 -15.003906 5.640625 -14.984375 L 5.640625 -13.5625 C 4.984375 -13.675781 4.453125 -13.65625 4.046875 -13.5 C 3.640625 -13.351562 3.40625 -13.066406 3.34375 -12.640625 Z M 3.34375 -12.640625 "/></g></g></g><g fill="#ffffff" fill-opacity="1"><g transform="translate(700.67959, 701.383113)"><g><path d="M 5.859375 -10.875 C 7.054688 -10.875 8.046875 -10.617188 8.828125 -10.109375 C 9.609375 -9.597656 10.1875 -8.914062 10.5625 -8.0625 C 10.9375 -7.21875 11.125 -6.296875 11.125 -5.296875 C 11.125 -4.304688 10.9375 -3.382812 10.5625 -2.53125 C 10.1875 -1.6875 9.609375 -1.003906 8.828125 -0.484375 C 8.046875 0.0234375 7.054688 0.28125 5.859375 0.28125 C 4.660156 0.28125 3.671875 0.0234375 2.890625 -0.484375 C 2.117188 -1.003906 1.539062 -1.6875 1.15625 -2.53125 C 0.78125 -3.382812 0.59375 -4.304688 0.59375 -5.296875 C 0.59375 -6.296875 0.78125 -7.21875 1.15625 -8.0625 C 1.539062 -8.914062 2.117188 -9.597656 2.890625 -10.109375 C 3.671875 -10.617188 4.660156 -10.875 5.859375 -10.875 Z M 5.859375 -1.046875 C 6.578125 -1.046875 7.1875 -1.226562 7.6875 -1.59375 C 8.1875 -1.957031 8.566406 -2.457031 8.828125 -3.09375 C 9.097656 -3.738281 9.234375 -4.472656 9.234375 -5.296875 C 9.234375 -6.554688 8.9375 -7.582031 8.34375 -8.375 C 7.75 -9.164062 6.921875 -9.5625 5.859375 -9.5625 C 4.796875 -9.5625 3.96875 -9.164062 3.375 -8.375 C 2.78125 -7.582031 2.484375 -6.554688 2.484375 -5.296875 C 2.484375 -4.472656 2.613281 -3.738281 2.875 -3.09375 C 3.144531 -2.457031 3.53125 -1.957031 4.03125 -1.59375 C 4.53125 -1.226562 5.140625 -1.046875 5.859375 -1.046875 Z M 5.859375 -1.046875 "/></g></g></g><g fill="#ffffff" fill-opacity="1"><g transform="translate(712.394964, 701.383113)"><g><path d="M 3.125 -14.703125 L 3.125 -3.046875 C 3.125 -2.878906 3.125 -2.710938 3.125 -2.546875 C 3.125 -2.378906 3.128906 -2.210938 3.140625 -2.046875 C 3.171875 -1.710938 3.273438 -1.476562 3.453125 -1.34375 C 3.640625 -1.21875 3.96875 -1.179688 4.4375 -1.234375 L 4.4375 0 C 4.25 0.03125 4.046875 0.0507812 3.828125 0.0625 C 3.617188 0.0703125 3.414062 0.078125 3.21875 0.078125 C 2.726562 0.078125 2.3125 -0.03125 1.96875 -0.25 C 1.625 -0.46875 1.441406 -0.910156 1.421875 -1.578125 C 1.410156 -1.765625 1.40625 -1.972656 1.40625 -2.203125 C 1.40625 -2.429688 1.40625 -2.691406 1.40625 -2.984375 L 1.40625 -14.703125 Z M 3.125 -14.703125 "/></g></g></g><g fill="#ffffff" fill-opacity="1"><g transform="translate(717.333021, 701.383113)"><g><path d="M 2.34375 -14.078125 C 2.644531 -14.078125 2.898438 -13.96875 3.109375 -13.75 C 3.328125 -13.539062 3.4375 -13.285156 3.4375 -12.984375 C 3.4375 -12.671875 3.328125 -12.40625 3.109375 -12.1875 C 2.898438 -11.976562 2.644531 -11.875 2.34375 -11.875 C 2.03125 -11.875 1.765625 -11.976562 1.546875 -12.1875 C 1.335938 -12.40625 1.234375 -12.671875 1.234375 -12.984375 C 1.234375 -13.285156 1.335938 -13.539062 1.546875 -13.75 C 1.765625 -13.96875 2.03125 -14.078125 2.34375 -14.078125 Z M 3.203125 0 L 1.484375 0 L 1.484375 -10.59375 L 3.203125 -10.59375 Z M 3.203125 0 "/></g></g></g><g fill="#ffffff" fill-opacity="1"><g transform="translate(722.091142, 701.383113)"><g><path d="M 5.859375 -10.875 C 7.054688 -10.875 8.046875 -10.617188 8.828125 -10.109375 C 9.609375 -9.597656 10.1875 -8.914062 10.5625 -8.0625 C 10.9375 -7.21875 11.125 -6.296875 11.125 -5.296875 C 11.125 -4.304688 10.9375 -3.382812 10.5625 -2.53125 C 10.1875 -1.6875 9.609375 -1.003906 8.828125 -0.484375 C 8.046875 0.0234375 7.054688 0.28125 5.859375 0.28125 C 4.660156 0.28125 3.671875 0.0234375 2.890625 -0.484375 C 2.117188 -1.003906 1.539062 -1.6875 1.15625 -2.53125 C 0.78125 -3.382812 0.59375 -4.304688 0.59375 -5.296875 C 0.59375 -6.296875 0.78125 -7.21875 1.15625 -8.0625 C 1.539062 -8.914062 2.117188 -9.597656 2.890625 -10.109375 C 3.671875 -10.617188 4.660156 -10.875 5.859375 -10.875 Z M 5.859375 -1.046875 C 6.578125 -1.046875 7.1875 -1.226562 7.6875 -1.59375 C 8.1875 -1.957031 8.566406 -2.457031 8.828125 -3.09375 C 9.097656 -3.738281 9.234375 -4.472656 9.234375 -5.296875 C 9.234375 -6.554688 8.9375 -7.582031 8.34375 -8.375 C 7.75 -9.164062 6.921875 -9.5625 5.859375 -9.5625 C 4.796875 -9.5625 3.96875 -9.164062 3.375 -8.375 C 2.78125 -7.582031 2.484375 -6.554688 2.484375 -5.296875 C 2.484375 -4.472656 2.613281 -3.738281 2.875 -3.09375 C 3.144531 -2.457031 3.53125 -1.957031 4.03125 -1.59375 C 4.53125 -1.226562 5.140625 -1.046875 5.859375 -1.046875 Z M 5.859375 -1.046875 "/></g></g></g><g fill="#ffffff" fill-opacity="1"><g transform="translate(733.806515, 701.383113)"><g/></g></g><g fill="#ffffff" fill-opacity="1"><g transform="translate(738.124817, 701.383113)"><g><path d="M 8.15625 -8.296875 L 7.578125 -5.5 L 9.59375 -5.5 L 9.59375 -4.375 L 7.34375 -4.375 L 6.40625 0 L 5.234375 0 L 6.1875 -4.375 L 4.359375 -4.375 L 3.421875 0 L 2.265625 0 L 3.203125 -4.375 L 1.40625 -4.375 L 1.40625 -5.5 L 3.4375 -5.5 L 4.015625 -8.296875 L 2 -8.296875 L 2 -9.421875 L 4.265625 -9.421875 L 5.203125 -13.796875 L 6.359375 -13.796875 L 5.421875 -9.421875 L 7.234375 -9.421875 L 8.1875 -13.796875 L 9.34375 -13.796875 L 8.40625 -9.421875 L 10.203125 -9.421875 L 10.203125 -8.296875 Z M 7.015625 -8.296875 L 5.203125 -8.296875 L 4.59375 -5.5 L 6.421875 -5.5 Z M 7.015625 -8.296875 "/></g></g></g><g fill="#ffffff" fill-opacity="1"><g transform="translate(749.720245, 701.383113)"><g><path d="M 10.953125 -3.484375 L 9.21875 -3.484375 L 9.21875 0 L 7.5 0 L 7.5 -3.484375 L 0.65625 -3.484375 L 0.65625 -4.34375 L 7.5 -13.796875 L 9.21875 -13.796875 L 9.21875 -4.875 L 10.953125 -4.875 Z M 7.5 -4.875 L 7.5 -11.5 C 7.34375 -11.226562 7.171875 -10.945312 6.984375 -10.65625 C 6.796875 -10.363281 6.585938 -10.054688 6.359375 -9.734375 L 2.84375 -4.875 Z M 7.5 -4.875 "/></g></g></g><g fill="#ffffff" fill-opacity="1"><g transform="translate(1087.30472, 701.383113)"><g><path d="M 3.71875 0 L 2 0 L 2 -13.796875 L 3.71875 -13.796875 Z M 3.71875 0 "/></g></g></g><g fill="#ffffff" fill-opacity="1"><g transform="translate(1092.582643, 701.383113)"><g><path d="M 10.40625 -7.78125 C 10.425781 -7.507812 10.4375 -7.242188 10.4375 -6.984375 C 10.4375 -6.722656 10.4375 -6.378906 10.4375 -5.953125 L 10.4375 0 L 8.71875 0 L 8.71875 -5.84375 C 8.71875 -6.101562 8.71875 -6.351562 8.71875 -6.59375 C 8.71875 -6.832031 8.707031 -7.085938 8.6875 -7.359375 C 8.625 -7.984375 8.410156 -8.5 8.046875 -8.90625 C 7.679688 -9.3125 7.085938 -9.515625 6.265625 -9.515625 C 5.710938 -9.515625 5.203125 -9.359375 4.734375 -9.046875 C 4.273438 -8.742188 3.90625 -8.238281 3.625 -7.53125 C 3.34375 -6.832031 3.203125 -5.875 3.203125 -4.65625 L 3.203125 0 L 1.484375 0 L 1.484375 -10.59375 L 3.203125 -10.59375 L 3.203125 -8.78125 L 3.859375 -10 C 4.316406 -10.34375 4.753906 -10.570312 5.171875 -10.6875 C 5.597656 -10.8125 6.082031 -10.875 6.625 -10.875 C 7.78125 -10.875 8.675781 -10.59375 9.3125 -10.03125 C 9.957031 -9.46875 10.320312 -8.71875 10.40625 -7.78125 Z M 10.40625 -7.78125 "/></g></g></g><g fill="#ffffff" fill-opacity="1"><g transform="translate(1104.437966, 701.383113)"><g><path d="M 3.546875 -9.203125 L 3.546875 -3.09375 C 3.546875 -2.925781 3.546875 -2.785156 3.546875 -2.671875 C 3.546875 -2.554688 3.550781 -2.425781 3.5625 -2.28125 C 3.601562 -1.769531 3.753906 -1.441406 4.015625 -1.296875 C 4.273438 -1.148438 4.738281 -1.117188 5.40625 -1.203125 L 5.40625 0.0625 C 5.144531 0.101562 4.894531 0.128906 4.65625 0.140625 C 4.414062 0.148438 4.175781 0.15625 3.9375 0.15625 C 3.28125 0.15625 2.78125 0.0078125 2.4375 -0.28125 C 2.09375 -0.570312 1.894531 -1.046875 1.84375 -1.703125 C 1.820312 -1.847656 1.8125 -2.03125 1.8125 -2.25 C 1.8125 -2.46875 1.8125 -2.722656 1.8125 -3.015625 L 1.8125 -9.203125 L 0.40625 -9.203125 L 0.40625 -10.515625 L 1.8125 -10.515625 L 1.8125 -12.984375 L 3.546875 -12.984375 L 3.546875 -10.515625 L 5.515625 -10.515625 L 5.515625 -9.203125 Z M 3.546875 -9.203125 "/></g></g></g><g fill="#ffffff" fill-opacity="1"><g transform="translate(1110.695492, 701.383113)"><g><path d="M 5.640625 -10.84375 C 5.929688 -10.84375 6.171875 -10.796875 6.359375 -10.703125 L 6.359375 -9.40625 C 5.460938 -9.46875 4.710938 -9.222656 4.109375 -8.671875 C 3.503906 -8.128906 3.203125 -7.253906 3.203125 -6.046875 L 3.203125 0 L 1.484375 0 L 1.484375 -10.59375 L 3.203125 -10.59375 L 3.203125 -8.9375 L 4.15625 -10.359375 C 4.625 -10.679688 5.117188 -10.84375 5.640625 -10.84375 Z M 5.640625 -10.84375 "/></g></g></g><g fill="#ffffff" fill-opacity="1"><g transform="translate(1117.292885, 701.383113)"><g><path d="M 5.859375 -10.875 C 7.054688 -10.875 8.046875 -10.617188 8.828125 -10.109375 C 9.609375 -9.597656 10.1875 -8.914062 10.5625 -8.0625 C 10.9375 -7.21875 11.125 -6.296875 11.125 -5.296875 C 11.125 -4.304688 10.9375 -3.382812 10.5625 -2.53125 C 10.1875 -1.6875 9.609375 -1.003906 8.828125 -0.484375 C 8.046875 0.0234375 7.054688 0.28125 5.859375 0.28125 C 4.660156 0.28125 3.671875 0.0234375 2.890625 -0.484375 C 2.117188 -1.003906 1.539062 -1.6875 1.15625 -2.53125 C 0.78125 -3.382812 0.59375 -4.304688 0.59375 -5.296875 C 0.59375 -6.296875 0.78125 -7.21875 1.15625 -8.0625 C 1.539062 -8.914062 2.117188 -9.597656 2.890625 -10.109375 C 3.671875 -10.617188 4.660156 -10.875 5.859375 -10.875 Z M 5.859375 -1.046875 C 6.578125 -1.046875 7.1875 -1.226562 7.6875 -1.59375 C 8.1875 -1.957031 8.566406 -2.457031 8.828125 -3.09375 C 9.097656 -3.738281 9.234375 -4.472656 9.234375 -5.296875 C 9.234375 -6.554688 8.9375 -7.582031 8.34375 -8.375 C 7.75 -9.164062 6.921875 -9.5625 5.859375 -9.5625 C 4.796875 -9.5625 3.96875 -9.164062 3.375 -8.375 C 2.78125 -7.582031 2.484375 -6.554688 2.484375 -5.296875 C 2.484375 -4.472656 2.613281 -3.738281 2.875 -3.09375 C 3.144531 -2.457031 3.53125 -1.957031 4.03125 -1.59375 C 4.53125 -1.226562 5.140625 -1.046875 5.859375 -1.046875 Z M 5.859375 -1.046875 "/></g></g></g><g fill="#ffffff" fill-opacity="1"><g transform="translate(1129.008258, 701.383113)"><g><path d="M 10.734375 -14.703125 L 10.734375 0 L 9.015625 0 L 9.015625 -1.703125 L 8.21875 -0.5625 C 7.925781 -0.3125 7.519531 -0.109375 7 0.046875 C 6.488281 0.203125 5.960938 0.28125 5.421875 0.28125 C 4.390625 0.28125 3.515625 0.046875 2.796875 -0.421875 C 2.078125 -0.898438 1.53125 -1.546875 1.15625 -2.359375 C 0.78125 -3.179688 0.59375 -4.109375 0.59375 -5.140625 C 0.59375 -6.441406 0.832031 -7.515625 1.3125 -8.359375 C 1.800781 -9.210938 2.441406 -9.84375 3.234375 -10.25 C 4.023438 -10.664062 4.875 -10.875 5.78125 -10.875 C 6.21875 -10.875 6.679688 -10.8125 7.171875 -10.6875 C 7.671875 -10.570312 8.050781 -10.40625 8.3125 -10.1875 L 9.015625 -9.140625 L 9.015625 -14.703125 Z M 5.6875 -1.046875 C 6.269531 -1.046875 6.8125 -1.179688 7.3125 -1.453125 C 7.820312 -1.722656 8.234375 -2.160156 8.546875 -2.765625 C 8.859375 -3.378906 9.015625 -4.191406 9.015625 -5.203125 L 9.015625 -5.78125 C 9.015625 -6.695312 8.851562 -7.429688 8.53125 -7.984375 C 8.207031 -8.535156 7.796875 -8.9375 7.296875 -9.1875 C 6.796875 -9.4375 6.289062 -9.5625 5.78125 -9.5625 C 4.84375 -9.5625 4.054688 -9.203125 3.421875 -8.484375 C 2.796875 -7.773438 2.484375 -6.726562 2.484375 -5.34375 C 2.484375 -4.539062 2.601562 -3.816406 2.84375 -3.171875 C 3.082031 -2.523438 3.4375 -2.007812 3.90625 -1.625 C 4.382812 -1.238281 4.976562 -1.046875 5.6875 -1.046875 Z M 5.6875 -1.046875 "/></g></g></g><g fill="#ffffff" fill-opacity="1"><g transform="translate(1141.303412, 701.383113)"><g><path d="M 10.28125 -10.59375 L 10.28125 0 L 8.5625 0 L 8.5625 -1.796875 L 7.90625 -0.5625 C 7.445312 -0.226562 7.003906 -0.00390625 6.578125 0.109375 C 6.160156 0.222656 5.679688 0.28125 5.140625 0.28125 C 4.046875 0.28125 3.179688 0.015625 2.546875 -0.515625 C 1.910156 -1.046875 1.535156 -1.679688 1.421875 -2.421875 C 1.378906 -2.679688 1.347656 -2.941406 1.328125 -3.203125 C 1.316406 -3.460938 1.3125 -3.804688 1.3125 -4.234375 L 1.3125 -10.59375 L 3.046875 -10.59375 L 3.046875 -4.5625 C 3.046875 -4.382812 3.050781 -4.160156 3.0625 -3.890625 C 3.070312 -3.628906 3.09375 -3.363281 3.125 -3.09375 C 3.195312 -2.5 3.441406 -2.015625 3.859375 -1.640625 C 4.285156 -1.265625 4.859375 -1.078125 5.578125 -1.078125 C 6.140625 -1.078125 6.644531 -1.226562 7.09375 -1.53125 C 7.539062 -1.84375 7.894531 -2.351562 8.15625 -3.0625 C 8.425781 -3.78125 8.5625 -4.738281 8.5625 -5.9375 L 8.5625 -10.59375 Z M 10.28125 -10.59375 "/></g></g></g><g fill="#ffffff" fill-opacity="1"><g transform="translate(1153.138743, 701.383113)"><g><path d="M 5.578125 -10.875 C 6.847656 -10.875 7.867188 -10.523438 8.640625 -9.828125 C 9.421875 -9.128906 9.894531 -8.203125 10.0625 -7.046875 L 8.265625 -7.046875 C 7.890625 -8.722656 6.984375 -9.5625 5.546875 -9.5625 C 4.992188 -9.5625 4.484375 -9.414062 4.015625 -9.125 C 3.546875 -8.832031 3.171875 -8.378906 2.890625 -7.765625 C 2.617188 -7.148438 2.484375 -6.363281 2.484375 -5.40625 C 2.484375 -4.375 2.617188 -3.535156 2.890625 -2.890625 C 3.160156 -2.253906 3.519531 -1.785156 3.96875 -1.484375 C 4.414062 -1.191406 4.898438 -1.046875 5.421875 -1.046875 C 6.128906 -1.046875 6.71875 -1.238281 7.1875 -1.625 C 7.664062 -2.019531 7.988281 -2.601562 8.15625 -3.375 L 9.953125 -3.375 C 9.703125 -2.15625 9.160156 -1.238281 8.328125 -0.625 C 7.503906 -0.0195312 6.5 0.28125 5.3125 0.28125 C 4.425781 0.28125 3.625 0.0859375 2.90625 -0.296875 C 2.195312 -0.679688 1.632812 -1.285156 1.21875 -2.109375 C 0.800781 -2.929688 0.59375 -3.988281 0.59375 -5.28125 C 0.59375 -6.476562 0.820312 -7.492188 1.28125 -8.328125 C 1.75 -9.160156 2.363281 -9.789062 3.125 -10.21875 C 3.882812 -10.65625 4.703125 -10.875 5.578125 -10.875 Z M 5.578125 -10.875 "/></g></g></g><g fill="#ffffff" fill-opacity="1"><g transform="translate(1163.714571, 701.383113)"><g><path d="M 3.546875 -9.203125 L 3.546875 -3.09375 C 3.546875 -2.925781 3.546875 -2.785156 3.546875 -2.671875 C 3.546875 -2.554688 3.550781 -2.425781 3.5625 -2.28125 C 3.601562 -1.769531 3.753906 -1.441406 4.015625 -1.296875 C 4.273438 -1.148438 4.738281 -1.117188 5.40625 -1.203125 L 5.40625 0.0625 C 5.144531 0.101562 4.894531 0.128906 4.65625 0.140625 C 4.414062 0.148438 4.175781 0.15625 3.9375 0.15625 C 3.28125 0.15625 2.78125 0.0078125 2.4375 -0.28125 C 2.09375 -0.570312 1.894531 -1.046875 1.84375 -1.703125 C 1.820312 -1.847656 1.8125 -2.03125 1.8125 -2.25 C 1.8125 -2.46875 1.8125 -2.722656 1.8125 -3.015625 L 1.8125 -9.203125 L 0.40625 -9.203125 L 0.40625 -10.515625 L 1.8125 -10.515625 L 1.8125 -12.984375 L 3.546875 -12.984375 L 3.546875 -10.515625 L 5.515625 -10.515625 L 5.515625 -9.203125 Z M 3.546875 -9.203125 "/></g></g></g><g fill="#ffffff" fill-opacity="1"><g transform="translate(1169.972097, 701.383113)"><g><path d="M 2.34375 -14.078125 C 2.644531 -14.078125 2.898438 -13.96875 3.109375 -13.75 C 3.328125 -13.539062 3.4375 -13.285156 3.4375 -12.984375 C 3.4375 -12.671875 3.328125 -12.40625 3.109375 -12.1875 C 2.898438 -11.976562 2.644531 -11.875 2.34375 -11.875 C 2.03125 -11.875 1.765625 -11.976562 1.546875 -12.1875 C 1.335938 -12.40625 1.234375 -12.671875 1.234375 -12.984375 C 1.234375 -13.285156 1.335938 -13.539062 1.546875 -13.75 C 1.765625 -13.96875 2.03125 -14.078125 2.34375 -14.078125 Z M 3.203125 0 L 1.484375 0 L 1.484375 -10.59375 L 3.203125 -10.59375 Z M 3.203125 0 "/></g></g></g><g fill="#ffffff" fill-opacity="1"><g transform="translate(1174.730218, 701.383113)"><g><path d="M 5.859375 -10.875 C 7.054688 -10.875 8.046875 -10.617188 8.828125 -10.109375 C 9.609375 -9.597656 10.1875 -8.914062 10.5625 -8.0625 C 10.9375 -7.21875 11.125 -6.296875 11.125 -5.296875 C 11.125 -4.304688 10.9375 -3.382812 10.5625 -2.53125 C 10.1875 -1.6875 9.609375 -1.003906 8.828125 -0.484375 C 8.046875 0.0234375 7.054688 0.28125 5.859375 0.28125 C 4.660156 0.28125 3.671875 0.0234375 2.890625 -0.484375 C 2.117188 -1.003906 1.539062 -1.6875 1.15625 -2.53125 C 0.78125 -3.382812 0.59375 -4.304688 0.59375 -5.296875 C 0.59375 -6.296875 0.78125 -7.21875 1.15625 -8.0625 C 1.539062 -8.914062 2.117188 -9.597656 2.890625 -10.109375 C 3.671875 -10.617188 4.660156 -10.875 5.859375 -10.875 Z M 5.859375 -1.046875 C 6.578125 -1.046875 7.1875 -1.226562 7.6875 -1.59375 C 8.1875 -1.957031 8.566406 -2.457031 8.828125 -3.09375 C 9.097656 -3.738281 9.234375 -4.472656 9.234375 -5.296875 C 9.234375 -6.554688 8.9375 -7.582031 8.34375 -8.375 C 7.75 -9.164062 6.921875 -9.5625 5.859375 -9.5625 C 4.796875 -9.5625 3.96875 -9.164062 3.375 -8.375 C 2.78125 -7.582031 2.484375 -6.554688 2.484375 -5.296875 C 2.484375 -4.472656 2.613281 -3.738281 2.875 -3.09375 C 3.144531 -2.457031 3.53125 -1.957031 4.03125 -1.59375 C 4.53125 -1.226562 5.140625 -1.046875 5.859375 -1.046875 Z M 5.859375 -1.046875 "/></g></g></g><g fill="#ffffff" fill-opacity="1"><g transform="translate(1186.445591, 701.383113)"><g><path d="M 10.40625 -7.78125 C 10.425781 -7.507812 10.4375 -7.242188 10.4375 -6.984375 C 10.4375 -6.722656 10.4375 -6.378906 10.4375 -5.953125 L 10.4375 0 L 8.71875 0 L 8.71875 -5.84375 C 8.71875 -6.101562 8.71875 -6.351562 8.71875 -6.59375 C 8.71875 -6.832031 8.707031 -7.085938 8.6875 -7.359375 C 8.625 -7.984375 8.410156 -8.5 8.046875 -8.90625 C 7.679688 -9.3125 7.085938 -9.515625 6.265625 -9.515625 C 5.710938 -9.515625 5.203125 -9.359375 4.734375 -9.046875 C 4.273438 -8.742188 3.90625 -8.238281 3.625 -7.53125 C 3.34375 -6.832031 3.203125 -5.875 3.203125 -4.65625 L 3.203125 0 L 1.484375 0 L 1.484375 -10.59375 L 3.203125 -10.59375 L 3.203125 -8.78125 L 3.859375 -10 C 4.316406 -10.34375 4.753906 -10.570312 5.171875 -10.6875 C 5.597656 -10.8125 6.082031 -10.875 6.625 -10.875 C 7.78125 -10.875 8.675781 -10.59375 9.3125 -10.03125 C 9.957031 -9.46875 10.320312 -8.71875 10.40625 -7.78125 Z M 10.40625 -7.78125 "/></g></g></g><g fill="#ffffff" fill-opacity="1"><g transform="translate(1198.300915, 701.383113)"><g/></g></g><g fill="#ffffff" fill-opacity="1"><g transform="translate(1202.619217, 701.383113)"><g><path d="M 3.546875 -9.203125 L 3.546875 -3.09375 C 3.546875 -2.925781 3.546875 -2.785156 3.546875 -2.671875 C 3.546875 -2.554688 3.550781 -2.425781 3.5625 -2.28125 C 3.601562 -1.769531 3.753906 -1.441406 4.015625 -1.296875 C 4.273438 -1.148438 4.738281 -1.117188 5.40625 -1.203125 L 5.40625 0.0625 C 5.144531 0.101562 4.894531 0.128906 4.65625 0.140625 C 4.414062 0.148438 4.175781 0.15625 3.9375 0.15625 C 3.28125 0.15625 2.78125 0.0078125 2.4375 -0.28125 C 2.09375 -0.570312 1.894531 -1.046875 1.84375 -1.703125 C 1.820312 -1.847656 1.8125 -2.03125 1.8125 -2.25 C 1.8125 -2.46875 1.8125 -2.722656 1.8125 -3.015625 L 1.8125 -9.203125 L 0.40625 -9.203125 L 0.40625 -10.515625 L 1.8125 -10.515625 L 1.8125 -12.984375 L 3.546875 -12.984375 L 3.546875 -10.515625 L 5.515625 -10.515625 L 5.515625 -9.203125 Z M 3.546875 -9.203125 "/></g></g></g><g fill="#ffffff" fill-opacity="1"><g transform="translate(1208.876743, 701.383113)"><g><path d="M 5.859375 -10.875 C 7.054688 -10.875 8.046875 -10.617188 8.828125 -10.109375 C 9.609375 -9.597656 10.1875 -8.914062 10.5625 -8.0625 C 10.9375 -7.21875 11.125 -6.296875 11.125 -5.296875 C 11.125 -4.304688 10.9375 -3.382812 10.5625 -2.53125 C 10.1875 -1.6875 9.609375 -1.003906 8.828125 -0.484375 C 8.046875 0.0234375 7.054688 0.28125 5.859375 0.28125 C 4.660156 0.28125 3.671875 0.0234375 2.890625 -0.484375 C 2.117188 -1.003906 1.539062 -1.6875 1.15625 -2.53125 C 0.78125 -3.382812 0.59375 -4.304688 0.59375 -5.296875 C 0.59375 -6.296875 0.78125 -7.21875 1.15625 -8.0625 C 1.539062 -8.914062 2.117188 -9.597656 2.890625 -10.109375 C 3.671875 -10.617188 4.660156 -10.875 5.859375 -10.875 Z M 5.859375 -1.046875 C 6.578125 -1.046875 7.1875 -1.226562 7.6875 -1.59375 C 8.1875 -1.957031 8.566406 -2.457031 8.828125 -3.09375 C 9.097656 -3.738281 9.234375 -4.472656 9.234375 -5.296875 C 9.234375 -6.554688 8.9375 -7.582031 8.34375 -8.375 C 7.75 -9.164062 6.921875 -9.5625 5.859375 -9.5625 C 4.796875 -9.5625 3.96875 -9.164062 3.375 -8.375 C 2.78125 -7.582031 2.484375 -6.554688 2.484375 -5.296875 C 2.484375 -4.472656 2.613281 -3.738281 2.875 -3.09375 C 3.144531 -2.457031 3.53125 -1.957031 4.03125 -1.59375 C 4.53125 -1.226562 5.140625 -1.046875 5.859375 -1.046875 Z M 5.859375 -1.046875 "/></g></g></g><g fill="#ffffff" fill-opacity="1"><g transform="translate(1220.592116, 701.383113)"><g/></g></g><g fill="#ffffff" fill-opacity="1"><g transform="translate(1224.910418, 701.383113)"><g><path d="M 7.453125 -14.078125 C 8.628906 -14.078125 9.617188 -13.875 10.421875 -13.46875 C 11.222656 -13.0625 11.84375 -12.507812 12.28125 -11.8125 C 12.71875 -11.113281 12.984375 -10.3125 13.078125 -9.40625 L 13.09375 -9.203125 L 11.375 -9.203125 L 11.34375 -9.40625 C 11.144531 -10.382812 10.726562 -11.179688 10.09375 -11.796875 C 9.457031 -12.410156 8.566406 -12.71875 7.421875 -12.71875 C 6.484375 -12.71875 5.671875 -12.46875 4.984375 -11.96875 C 4.296875 -11.46875 3.769531 -10.78125 3.40625 -9.90625 C 3.039062 -9.03125 2.859375 -8.035156 2.859375 -6.921875 C 2.859375 -5.785156 3.035156 -4.773438 3.390625 -3.890625 C 3.753906 -3.015625 4.269531 -2.328125 4.9375 -1.828125 C 5.601562 -1.328125 6.390625 -1.078125 7.296875 -1.078125 C 8.441406 -1.078125 9.332031 -1.382812 9.96875 -2 C 10.601562 -2.613281 11.019531 -3.414062 11.21875 -4.40625 L 11.265625 -4.59375 L 12.984375 -4.59375 L 12.953125 -4.40625 C 12.878906 -3.570312 12.613281 -2.796875 12.15625 -2.078125 C 11.707031 -1.367188 11.070312 -0.796875 10.25 -0.359375 C 9.425781 0.0664062 8.410156 0.28125 7.203125 0.28125 C 5.867188 0.28125 4.734375 -0.03125 3.796875 -0.65625 C 2.867188 -1.28125 2.160156 -2.128906 1.671875 -3.203125 C 1.179688 -4.273438 0.9375 -5.488281 0.9375 -6.84375 C 0.9375 -8.238281 1.207031 -9.484375 1.75 -10.578125 C 2.289062 -11.671875 3.050781 -12.523438 4.03125 -13.140625 C 5.007812 -13.765625 6.148438 -14.078125 7.453125 -14.078125 Z M 7.453125 -14.078125 "/></g></g></g><g fill="#ffffff" fill-opacity="1"><g transform="translate(1238.884901, 701.383113)"><g><path d="M 5.859375 -10.875 C 7.054688 -10.875 8.046875 -10.617188 8.828125 -10.109375 C 9.609375 -9.597656 10.1875 -8.914062 10.5625 -8.0625 C 10.9375 -7.21875 11.125 -6.296875 11.125 -5.296875 C 11.125 -4.304688 10.9375 -3.382812 10.5625 -2.53125 C 10.1875 -1.6875 9.609375 -1.003906 8.828125 -0.484375 C 8.046875 0.0234375 7.054688 0.28125 5.859375 0.28125 C 4.660156 0.28125 3.671875 0.0234375 2.890625 -0.484375 C 2.117188 -1.003906 1.539062 -1.6875 1.15625 -2.53125 C 0.78125 -3.382812 0.59375 -4.304688 0.59375 -5.296875 C 0.59375 -6.296875 0.78125 -7.21875 1.15625 -8.0625 C 1.539062 -8.914062 2.117188 -9.597656 2.890625 -10.109375 C 3.671875 -10.617188 4.660156 -10.875 5.859375 -10.875 Z M 5.859375 -1.046875 C 6.578125 -1.046875 7.1875 -1.226562 7.6875 -1.59375 C 8.1875 -1.957031 8.566406 -2.457031 8.828125 -3.09375 C 9.097656 -3.738281 9.234375 -4.472656 9.234375 -5.296875 C 9.234375 -6.554688 8.9375 -7.582031 8.34375 -8.375 C 7.75 -9.164062 6.921875 -9.5625 5.859375 -9.5625 C 4.796875 -9.5625 3.96875 -9.164062 3.375 -8.375 C 2.78125 -7.582031 2.484375 -6.554688 2.484375 -5.296875 C 2.484375 -4.472656 2.613281 -3.738281 2.875 -3.09375 C 3.144531 -2.457031 3.53125 -1.957031 4.03125 -1.59375 C 4.53125 -1.226562 5.140625 -1.046875 5.859375 -1.046875 Z M 5.859375 -1.046875 "/></g></g></g><g fill="#ffffff" fill-opacity="1"><g transform="translate(1250.600275, 701.383113)"><g><path d="M 15.578125 -8.296875 C 15.617188 -8.035156 15.644531 -7.773438 15.65625 -7.515625 C 15.675781 -7.253906 15.6875 -6.910156 15.6875 -6.484375 L 15.6875 0 L 13.953125 0 L 13.953125 -5.6875 C 13.953125 -6.570312 13.925781 -7.253906 13.875 -7.734375 C 13.800781 -8.335938 13.578125 -8.785156 13.203125 -9.078125 C 12.835938 -9.367188 12.359375 -9.515625 11.765625 -9.515625 C 11.316406 -9.515625 10.914062 -9.378906 10.5625 -9.109375 C 10.21875 -8.847656 9.941406 -8.40625 9.734375 -7.78125 C 9.535156 -7.164062 9.4375 -6.316406 9.4375 -5.234375 L 9.4375 0 L 7.71875 0 L 7.71875 -5.6875 C 7.71875 -6.570312 7.691406 -7.253906 7.640625 -7.734375 C 7.554688 -8.335938 7.332031 -8.785156 6.96875 -9.078125 C 6.601562 -9.367188 6.117188 -9.515625 5.515625 -9.515625 C 5.078125 -9.515625 4.679688 -9.378906 4.328125 -9.109375 C 3.972656 -8.847656 3.695312 -8.40625 3.5 -7.78125 C 3.300781 -7.164062 3.203125 -6.316406 3.203125 -5.234375 L 3.203125 0 L 1.484375 0 L 1.484375 -10.59375 L 3.203125 -10.59375 L 3.203125 -9.0625 L 3.875 -10.265625 C 4.144531 -10.484375 4.46875 -10.640625 4.84375 -10.734375 C 5.226562 -10.828125 5.65625 -10.875 6.125 -10.875 C 6.9375 -10.875 7.597656 -10.691406 8.109375 -10.328125 C 8.617188 -9.960938 8.976562 -9.488281 9.1875 -8.90625 L 10.125 -10.265625 C 10.382812 -10.484375 10.703125 -10.640625 11.078125 -10.734375 C 11.460938 -10.828125 11.890625 -10.875 12.359375 -10.875 C 13.304688 -10.875 14.050781 -10.628906 14.59375 -10.140625 C 15.132812 -9.648438 15.460938 -9.035156 15.578125 -8.296875 Z M 15.578125 -8.296875 "/></g></g></g><g fill="#ffffff" fill-opacity="1"><g transform="translate(1267.693536, 701.383113)"><g><path d="M 6.796875 -10.875 C 7.835938 -10.875 8.710938 -10.632812 9.421875 -10.15625 C 10.140625 -9.6875 10.6875 -9.046875 11.0625 -8.234375 C 11.4375 -7.421875 11.625 -6.492188 11.625 -5.453125 C 11.625 -4.148438 11.382812 -3.070312 10.90625 -2.21875 C 10.425781 -1.375 9.789062 -0.742188 9 -0.328125 C 8.207031 0.078125 7.351562 0.28125 6.4375 0.28125 C 6 0.28125 5.53125 0.21875 5.03125 0.09375 C 4.539062 -0.03125 4.164062 -0.203125 3.90625 -0.421875 L 3.203125 -1.453125 L 3.203125 3.921875 L 1.484375 3.921875 L 1.484375 -10.59375 L 3.203125 -10.59375 L 3.203125 -8.90625 L 4 -10.046875 C 4.300781 -10.296875 4.707031 -10.492188 5.21875 -10.640625 C 5.738281 -10.796875 6.265625 -10.875 6.796875 -10.875 Z M 6.4375 -1.046875 C 7.375 -1.046875 8.15625 -1.398438 8.78125 -2.109375 C 9.414062 -2.828125 9.734375 -3.878906 9.734375 -5.265625 C 9.734375 -6.054688 9.613281 -6.78125 9.375 -7.4375 C 9.132812 -8.09375 8.773438 -8.609375 8.296875 -8.984375 C 7.828125 -9.367188 7.242188 -9.5625 6.546875 -9.5625 C 5.953125 -9.5625 5.398438 -9.421875 4.890625 -9.140625 C 4.390625 -8.867188 3.984375 -8.429688 3.671875 -7.828125 C 3.359375 -7.222656 3.203125 -6.414062 3.203125 -5.40625 L 3.203125 -4.8125 C 3.203125 -3.90625 3.363281 -3.171875 3.6875 -2.609375 C 4.019531 -2.054688 4.4375 -1.65625 4.9375 -1.40625 C 5.4375 -1.164062 5.9375 -1.046875 6.4375 -1.046875 Z M 6.4375 -1.046875 "/></g></g></g><g fill="#ffffff" fill-opacity="1"><g transform="translate(1279.90873, 701.383113)"><g><path d="M 10.28125 -10.59375 L 10.28125 0 L 8.5625 0 L 8.5625 -1.796875 L 7.90625 -0.5625 C 7.445312 -0.226562 7.003906 -0.00390625 6.578125 0.109375 C 6.160156 0.222656 5.679688 0.28125 5.140625 0.28125 C 4.046875 0.28125 3.179688 0.015625 2.546875 -0.515625 C 1.910156 -1.046875 1.535156 -1.679688 1.421875 -2.421875 C 1.378906 -2.679688 1.347656 -2.941406 1.328125 -3.203125 C 1.316406 -3.460938 1.3125 -3.804688 1.3125 -4.234375 L 1.3125 -10.59375 L 3.046875 -10.59375 L 3.046875 -4.5625 C 3.046875 -4.382812 3.050781 -4.160156 3.0625 -3.890625 C 3.070312 -3.628906 3.09375 -3.363281 3.125 -3.09375 C 3.195312 -2.5 3.441406 -2.015625 3.859375 -1.640625 C 4.285156 -1.265625 4.859375 -1.078125 5.578125 -1.078125 C 6.140625 -1.078125 6.644531 -1.226562 7.09375 -1.53125 C 7.539062 -1.84375 7.894531 -2.351562 8.15625 -3.0625 C 8.425781 -3.78125 8.5625 -4.738281 8.5625 -5.9375 L 8.5625 -10.59375 Z M 10.28125 -10.59375 "/></g></g></g><g fill="#ffffff" fill-opacity="1"><g transform="translate(1291.744072, 701.383113)"><g><path d="M 3.546875 -9.203125 L 3.546875 -3.09375 C 3.546875 -2.925781 3.546875 -2.785156 3.546875 -2.671875 C 3.546875 -2.554688 3.550781 -2.425781 3.5625 -2.28125 C 3.601562 -1.769531 3.753906 -1.441406 4.015625 -1.296875 C 4.273438 -1.148438 4.738281 -1.117188 5.40625 -1.203125 L 5.40625 0.0625 C 5.144531 0.101562 4.894531 0.128906 4.65625 0.140625 C 4.414062 0.148438 4.175781 0.15625 3.9375 0.15625 C 3.28125 0.15625 2.78125 0.0078125 2.4375 -0.28125 C 2.09375 -0.570312 1.894531 -1.046875 1.84375 -1.703125 C 1.820312 -1.847656 1.8125 -2.03125 1.8125 -2.25 C 1.8125 -2.46875 1.8125 -2.722656 1.8125 -3.015625 L 1.8125 -9.203125 L 0.40625 -9.203125 L 0.40625 -10.515625 L 1.8125 -10.515625 L 1.8125 -12.984375 L 3.546875 -12.984375 L 3.546875 -10.515625 L 5.515625 -10.515625 L 5.515625 -9.203125 Z M 3.546875 -9.203125 "/></g></g></g><g fill="#ffffff" fill-opacity="1"><g transform="translate(1298.001609, 701.383113)"><g><path d="M 2.34375 -14.078125 C 2.644531 -14.078125 2.898438 -13.96875 3.109375 -13.75 C 3.328125 -13.539062 3.4375 -13.285156 3.4375 -12.984375 C 3.4375 -12.671875 3.328125 -12.40625 3.109375 -12.1875 C 2.898438 -11.976562 2.644531 -11.875 2.34375 -11.875 C 2.03125 -11.875 1.765625 -11.976562 1.546875 -12.1875 C 1.335938 -12.40625 1.234375 -12.671875 1.234375 -12.984375 C 1.234375 -13.285156 1.335938 -13.539062 1.546875 -13.75 C 1.765625 -13.96875 2.03125 -14.078125 2.34375 -14.078125 Z M 3.203125 0 L 1.484375 0 L 1.484375 -10.59375 L 3.203125 -10.59375 Z M 3.203125 0 "/></g></g></g><g fill="#ffffff" fill-opacity="1"><g transform="translate(1302.759742, 701.383113)"><g><path d="M 10.40625 -7.78125 C 10.425781 -7.507812 10.4375 -7.242188 10.4375 -6.984375 C 10.4375 -6.722656 10.4375 -6.378906 10.4375 -5.953125 L 10.4375 0 L 8.71875 0 L 8.71875 -5.84375 C 8.71875 -6.101562 8.71875 -6.351562 8.71875 -6.59375 C 8.71875 -6.832031 8.707031 -7.085938 8.6875 -7.359375 C 8.625 -7.984375 8.410156 -8.5 8.046875 -8.90625 C 7.679688 -9.3125 7.085938 -9.515625 6.265625 -9.515625 C 5.710938 -9.515625 5.203125 -9.359375 4.734375 -9.046875 C 4.273438 -8.742188 3.90625 -8.238281 3.625 -7.53125 C 3.34375 -6.832031 3.203125 -5.875 3.203125 -4.65625 L 3.203125 0 L 1.484375 0 L 1.484375 -10.59375 L 3.203125 -10.59375 L 3.203125 -8.78125 L 3.859375 -10 C 4.316406 -10.34375 4.753906 -10.570312 5.171875 -10.6875 C 5.597656 -10.8125 6.082031 -10.875 6.625 -10.875 C 7.78125 -10.875 8.675781 -10.59375 9.3125 -10.03125 C 9.957031 -9.46875 10.320312 -8.71875 10.40625 -7.78125 Z M 10.40625 -7.78125 "/></g></g></g><g fill="#ffffff" fill-opacity="1"><g transform="translate(1314.615065, 701.383113)"><g><path d="M 10.734375 -10.59375 L 10.734375 -2.59375 C 10.734375 -2.257812 10.734375 -1.90625 10.734375 -1.53125 C 10.734375 -1.164062 10.726562 -0.835938 10.71875 -0.546875 C 10.664062 1.003906 10.195312 2.179688 9.3125 2.984375 C 8.425781 3.796875 7.21875 4.203125 5.6875 4.203125 C 4.175781 4.203125 3.03125 3.894531 2.25 3.28125 C 1.476562 2.675781 1.039062 1.816406 0.9375 0.703125 L 0.921875 0.5 L 2.65625 0.5 L 2.6875 0.6875 C 2.75 1.332031 3.035156 1.859375 3.546875 2.265625 C 4.054688 2.671875 4.769531 2.875 5.6875 2.875 C 6.738281 2.875 7.539062 2.585938 8.09375 2.015625 C 8.65625 1.441406 8.957031 0.648438 9 -0.359375 C 9.007812 -0.609375 9.015625 -0.820312 9.015625 -1 C 9.015625 -1.1875 9.015625 -1.359375 9.015625 -1.515625 L 9.015625 -1.703125 L 8.21875 -0.5625 C 7.925781 -0.3125 7.519531 -0.109375 7 0.046875 C 6.488281 0.203125 5.960938 0.28125 5.421875 0.28125 C 4.390625 0.28125 3.515625 0.046875 2.796875 -0.421875 C 2.078125 -0.898438 1.53125 -1.546875 1.15625 -2.359375 C 0.78125 -3.179688 0.59375 -4.109375 0.59375 -5.140625 C 0.59375 -6.441406 0.832031 -7.515625 1.3125 -8.359375 C 1.800781 -9.210938 2.441406 -9.84375 3.234375 -10.25 C 4.023438 -10.664062 4.875 -10.875 5.78125 -10.875 C 6.21875 -10.875 6.679688 -10.8125 7.171875 -10.6875 C 7.671875 -10.570312 8.050781 -10.40625 8.3125 -10.1875 L 9.015625 -9.140625 L 9.015625 -10.59375 Z M 5.6875 -1.046875 C 6.269531 -1.046875 6.8125 -1.179688 7.3125 -1.453125 C 7.820312 -1.722656 8.234375 -2.160156 8.546875 -2.765625 C 8.859375 -3.378906 9.015625 -4.191406 9.015625 -5.203125 L 9.015625 -5.78125 C 9.015625 -6.695312 8.851562 -7.429688 8.53125 -7.984375 C 8.207031 -8.535156 7.796875 -8.9375 7.296875 -9.1875 C 6.796875 -9.4375 6.289062 -9.5625 5.78125 -9.5625 C 4.84375 -9.5625 4.054688 -9.203125 3.421875 -8.484375 C 2.796875 -7.773438 2.484375 -6.726562 2.484375 -5.34375 C 2.484375 -4.539062 2.601562 -3.816406 2.84375 -3.171875 C 3.082031 -2.523438 3.4375 -2.007812 3.90625 -1.625 C 4.382812 -1.238281 4.976562 -1.046875 5.6875 -1.046875 Z M 5.6875 -1.046875 "/></g></g></g></svg>